<svg xmlns:dc="http://purl.org/dc/elements/1.1/" xmlns:cc="http://creativecommons.org/ns#" xmlns:rdf="http://www.w3.org/1999/02/22-rdf-syntax-ns#" xmlns:svg="http://www.w3.org/2000/svg" xmlns="http://www.w3.org/2000/svg" version="1.0" width="898" height="1042">
<metadata><rdf:RDF><cc:Work rdf:about=""><dc:format>image/svg+xml</dc:format><dc:type rdf:resource="http://purl.org/dc/dcmitype/StillImage"/></cc:Work></rdf:RDF></metadata>
<g transform="translate(-39.57143,-5.6478968)">
 <g transform="translate(0.3353955,-0.12946)">
  <path fill="#FFF" d="M 513.60157,860.3298 C 513.18008,859.87984 490.38837,859.40774 462.95333,859.28069 C 414.85285,859.05794 412.76828,858.96959 404.58275,856.80692 C 399.91397,855.57339 392.91518,852.84947 389.02987,850.75377 C 385.05426,848.60935 374.99334,844.87244 366.01855,842.20671 C 308.23912,825.04484 288.32696,816.2772 270.57143,800.1798 C 233.94485,766.97366 80.217198,612.70298 76.223519,605.14537 C 74.760135,602.37607 74.586395,601.04373 75.38858,598.74258 C 76.036776,596.88316 76.097988,592.29368 75.558565,585.99774 C 74.25022,570.72725 76.881654,545.01594 81.673769,526.24708 C 82.784984,521.89488 85.88001,511.31712 88.551605,502.74095 C 104.54835,451.38928 105.39431,446.25485 108.09124,384.1479 C 109.5938,349.54582 112.49827,318.97727 117.16517,288.6479 C 122.41535,254.52791 127.52584,235.69882 136.28536,218.2016 C 143.99603,202.79944 160.40645,175.31218 167.46931,165.96885 C 182.18085,146.50718 206.3855,127.48653 253.27243,98.542477 C 261.41188,93.517863 269.42143,88.133866 271.07143,86.578038 C 276.05248,81.881275 280.9737,80.314408 286.43861,81.685285 C 291.02135,82.83487 291.37709,82.732591 319.3472,72.223659 C 353.60706,59.351543 355.82737,58.384143 366.57143,51.647897 C 386.8276,38.947803 398.53014,36.807521 429.65321,40.110844 C 453.14861,42.604587 486.04142,48.72835 502.93681,53.754295 C 511.88643,56.416579 521.27556,60.955347 526.15715,64.979167 C 532.46286,70.176868 545.93504,88.063039 552.09037,99.409091 C 564.01243,121.38491 567.36474,126.60612 582.13821,146.20845 C 600.09856,170.03934 604.47225,177.17152 608.47009,189.1479 L 611.47438,198.1479 L 616.2918,199.23903 C 622.18385,200.57357 623.96255,201.50502 632.4643,207.70811 C 643.28046,215.59983 646.87977,216.49482 680.42836,219.63451 C 704.24461,221.86339 712.45448,223.33439 728.07143,228.17094 C 751.37836,235.38907 763.40561,243.22977 793.95708,271.12253 C 828.80084,302.93405 858.88098,344.94004 884.09928,397.0033 C 901.74877,433.44075 907.938,457.24367 907.92869,488.6479 C 907.91712,527.6417 898.58374,557.55585 869.76332,610.9706 C 856.25515,636.00615 852.3617,642.49646 837.86299,664.1479 C 826.08635,681.73437 795.76757,724.94764 784.83938,739.7223 C 776.78373,750.61336 772.43969,758.99512 769.07433,770.14076 C 767.58089,775.08684 765.31028,781.20314 764.02854,783.73254 C 760.67592,790.34863 751.77439,798.02375 742.21789,802.53824 C 730.12978,807.26321 719.76457,813.73819 710.20018,822.45992 C 698.08585,833.82637 690.29583,838.70152 679.74409,841.51994 C 667.06205,844.90738 658.02281,845.60257 612.60036,846.68384 C 588.69126,847.25299 566.41319,848.1033 563.09352,848.57342 C 559.22683,849.12101 555.26337,850.54065 552.0646,852.52378 C 549.30026,854.23758 544.16998,856.2031 540.57143,856.92708 L 534.07143,858.23478 C 534.07143,858.23478 513.60157,860.3298 513.60157,860.3298 z"/>
  <path d="M 397.68463,1045.3979 C 398.33559,1044.1604 407.33691,1028.9729 417.68755,1011.6479 C 443.27154,968.8252 457.22472,950.34786 477.57143,932.34742 C 501.86525,910.85503 517.51141,896.23487 518.09769,894.47867 C 518.76921,892.46712 514.69107,861.49288 513.60157,860.3298 C 513.18008,859.87984 490.38837,859.40774 462.95333,859.28069 C 414.85285,859.05794 412.76828,858.96959 404.58275,856.80692 C 399.91397,855.57339 392.91518,852.84947 389.02987,850.75377 C 385.05426,848.60935 374.99334,844.87244 366.01855,842.20671 C 308.23912,825.04484 288.32696,816.2772 270.57143,800.1798 C 233.94485,766.97366 80.217198,612.70298 76.223519,605.14537 C 74.760135,602.37607 74.586395,601.04373 75.38858,598.74258 C 76.036776,596.88316 76.097988,592.29368 75.558565,585.99774 C 74.25022,570.72725 76.881654,545.01594 81.673769,526.24708 C 82.784984,521.89488 85.88001,511.31712 88.551605,502.74095 C 104.54835,451.38928 105.39431,446.25485 108.09124,384.1479 C 109.5938,349.54582 112.49827,318.97727 117.16517,288.6479 C 122.41535,254.52791 127.52584,235.69882 136.28536,218.2016 C 143.99603,202.79944 160.40645,175.31218 167.46931,165.96885 C 182.18085,146.50718 206.3855,127.48653 253.27243,98.542477 C 261.41188,93.517863 269.42143,88.133866 271.07143,86.578038 C 276.05248,81.881275 280.9737,80.314408 286.43861,81.685285 C 291.02135,82.83487 291.37709,82.732591 319.3472,72.223659 C 353.60706,59.351543 355.82737,58.384143 366.57143,51.647897 C 386.8276,38.947803 398.53014,36.807521 429.65321,40.110844 C 453.14861,42.604587 486.04142,48.72835 502.93681,53.754295 C 511.88643,56.416579 521.27556,60.955347 526.15715,64.979167 C 532.46286,70.176868 545.93504,88.063039 552.09037,99.409091 C 564.01243,121.38491 567.36474,126.60612 582.13821,146.20845 C 600.09856,170.03934 604.47225,177.17152 608.47009,189.1479 L 611.47438,198.1479 L 616.2918,199.23903 C 622.18385,200.57357 623.96255,201.50502 632.4643,207.70811 C 643.28046,215.59983 646.87977,216.49482 680.42836,219.63451 C 704.24461,221.86339 712.45448,223.33439 728.07143,228.17094 C 751.37836,235.38907 763.40561,243.22977 793.95708,271.12253 C 828.80084,302.93405 858.88098,344.94004 884.09928,397.0033 C 901.74877,433.44075 907.938,457.24367 907.92869,488.6479 C 907.91712,527.6417 898.58374,557.55585 869.76332,610.9706 C 856.25515,636.00615 852.3617,642.49646 837.86299,664.1479 C 826.08635,681.73437 795.76757,724.94764 784.83938,739.7223 C 776.78373,750.61336 772.43969,758.99512 769.07433,770.14076 C 767.58089,775.08684 765.31028,781.20314 764.02854,783.73254 C 760.67592,790.34863 751.77439,798.02375 742.21789,802.53824 C 737.73734,804.65485 731.02362,807.82332 727.29852,809.57928 C 722.41382,811.88186 717.647,815.47283 710.20018,822.45992 C 698.08585,833.82637 690.29583,838.70152 679.74409,841.51994 C 667.06205,844.90738 658.02281,845.60257 612.60036,846.68384 C 588.69126,847.25299 566.41319,848.1033 563.09352,848.57342 C 559.22683,849.12101 555.26337,850.54065 552.0646,852.52378 C 549.30026,854.23758 544.16998,856.2031 540.57143,856.92708 L 534.07143,858.23478 L 533.82812,869.69134 C 533.59717,880.56594 533.72549,881.40188 536.35427,886.1479 L 539.12372,891.1479 L 548.09757,890.85479 L 557.07143,890.56168 L 585.07143,907.19523 C 600.47143,916.34368 613.74643,924.41178 614.57143,925.12434 C 615.39643,925.8369 618.45507,927.61449 621.36842,929.07456 C 627.12202,931.95805 628.48907,933.83728 626.5408,936.1848 C 624.95348,938.09741 624.91757,938.0717 632.02872,940.11366 C 640.25687,942.47637 646.39284,945.75453 653.24044,951.44609 C 656.44749,954.11171 661.54643,958.02788 664.57143,960.1487 C 669.02765,963.27294 753.59754,1036.7618 762.5487,1045.2882 L 765.02598,1047.6479 L 744.46414,1047.6479 L 723.9023,1047.6479 L 706.48687,1028.5091 C 683.56189,1003.3155 652.21239,974.8507 622.99392,952.69902 L 600.42718,935.59028 L 572.58541,922.61909 C 557.27243,915.48494 544.25489,909.6479 543.65753,909.6479 C 543.06018,909.6479 542.57143,910.25546 542.57143,910.99803 C 542.57143,911.74061 545.49643,942.32197 549.07143,978.95662 C 552.64643,1015.5913 555.57143,1046.0337 555.57143,1046.6065 C 555.57143,1047.2728 551.06951,1047.6479 543.07143,1047.6479 L 530.57143,1047.6479 L 530.48444,1039.3979 C 530.13289,1006.0579 526.92416,923.26279 525.97136,922.94643 C 525.36631,922.74555 519.06631,927.25803 511.97136,932.97417 C 502.04694,940.96989 495.67606,947.26311 484.35128,960.25753 C 471.50011,975.00337 466.8286,981.45836 447.55832,1011.0972 C 435.41827,1029.7693 424.99974,1045.6318 424.40602,1046.3472 C 423.61818,1047.2965 419.70287,1047.6479 409.9138,1047.6479 L 396.50106,1047.6479 L 397.68463,1045.3979 z M 530.27294,841.72199 C 538.57998,840.92273 541.20825,840.25485 544.42589,838.12552 C 546.59918,836.6873 550.5585,834.84883 553.22438,834.04002 C 559.57124,832.11443 582.87876,830.70769 609.07143,830.66935 C 634.58024,830.63201 660.45082,829.09265 670.57143,827.00997 C 682.19172,824.61868 687.27804,821.6579 699.6252,810.09756 C 710.32857,800.07626 711.48011,799.30383 726.96111,791.76114 C 747.62173,781.69482 749.03638,780.24549 754.06999,763.98748 C 758.57354,749.44155 760.86284,745.24699 774.99498,725.6479 C 804.76816,684.35711 829.83106,647.91418 839.33739,632.09025 C 848.14184,617.43464 864.75106,586.30539 871.19034,572.39094 C 886.09547,540.18294 891.55353,517.83638 891.56553,488.97026 C 891.57795,459.10483 886.11167,438.4022 868.64114,402.1479 C 855.91906,375.74744 833.62485,339.693 818.53771,321.12009 C 796.36428,293.82365 762.31917,262.27613 744.10834,252.15094 C 736.31229,247.81635 716.77249,241.11795 706.28277,239.18403 C 701.76654,238.3514 688.39643,236.73209 676.57143,235.58555 C 643.12538,232.34267 635.45673,230.32292 624.10332,221.76666 C 618.99671,217.91818 615.25631,215.6479 614.02233,215.6479 C 613.64802,215.6479 609.87982,219.01687 605.64855,223.13451 C 596.14748,232.38044 593.13263,233.36294 588.49451,228.72482 C 584.46437,224.69469 584.96253,221.28261 590.4994,214.99239 C 595.2185,209.63121 595.9443,206.91571 594.60069,199.6479 C 592.87357,190.30572 586.2633,178.67855 571.70521,159.3758 C 554.05989,135.97965 551.37327,131.94943 542.55535,115.6479 C 538.53898,108.2229 533.8924,100.1229 532.22962,97.647897 C 526.03976,88.434462 517.08843,78.297295 512.65075,75.475291 C 501.65754,68.48451 456.74377,58.725285 421.10175,55.582788 C 400.13411,53.734107 391.58104,55.468107 376.57143,64.6106 C 362.35494,73.269997 359.40603,74.582751 327.0499,86.655932 C 310.64365,92.777662 295.57867,98.623879 293.57216,99.647525 C 291.56565,100.67117 287.09893,101.82832 283.64612,102.21896 C 278.28719,102.82525 275.66326,103.95253 265.71985,109.92032 C 232.05711,130.1239 203.141,151.10649 190.04733,164.83107 C 179.94455,175.42065 175.57475,181.62827 163.07455,203.1479 C 151.40934,223.23004 147.40264,231.36094 143.65117,242.5643 C 135.38168,267.26017 126.60537,329.86175 124.57317,378.6479 C 121.81142,444.94846 120.0898,456.35154 106.07831,501.1479 C 93.888243,540.12094 90.923527,557.17686 91.871429,582.87963 C 92.190526,591.53209 92.873849,599.36588 93.389925,600.28805 C 96.763749,606.31674 262.40765,771.90306 277.32143,784.15562 L 280.57143,786.82569 L 283.60087,784.27658 C 287.88497,780.67175 291.70452,780.13303 312.07143,780.26101 C 340.1067,780.43719 348.77541,782.41281 363.12509,791.89629 C 376.77154,800.91501 373.10478,801.75662 351.09857,794.65666 C 330.14627,787.89672 324.57242,786.66912 315.07143,786.72193 C 305.91441,786.77282 285.92985,788.95614 284.86388,790.02211 C 283.48394,791.40206 290.21469,795.76948 305.07143,803.1343 C 320.69714,810.88031 333.13125,815.36578 367.57143,825.68047 C 379.14131,829.1456 390.68512,833.26537 394.07143,835.13781 C 401.09371,839.02076 409.04606,841.48734 418.38162,842.67811 C 427.00049,843.77746 516.8931,843.00932 530.27294,841.72199 z M 454.07143,827.57754 C 443.50601,826.43511 437.05877,824.86849 431.53128,822.10047 C 426.33615,819.49889 419.3529,812.35452 416.82633,807.05624 C 415.12994,803.49887 415.13927,803.41626 417.44856,801.54631 C 418.738,800.50219 421.084,799.6479 422.66189,799.6479 C 424.98788,799.6479 425.90575,800.3829 427.51225,803.53189 C 430.13037,808.66385 438.5745,815.27168 444.95216,817.17925 C 447.76776,818.02141 457.27143,819.17702 466.07143,819.74728 C 486.79588,821.09028 500.62994,819.91538 513.48841,815.72024 C 518.66776,814.03045 523.68211,812.6479 524.63143,812.6479 C 530.09347,812.6479 524.60157,821.9792 516.91129,825.76519 C 512.23275,828.06848 511.23813,828.15281 487.07143,828.29523 C 473.32143,828.37627 458.47143,828.0533 454.07143,827.57754 z M 594.71708,820.07588 C 585.32264,817.54864 580.41042,812.75049 583.17569,808.80251 C 585.2808,805.79704 587.19362,806.1049 590.91211,810.04765 C 593.57636,812.87258 595.10235,813.57032 599.93758,814.17444 C 609.3547,815.35103 616.18802,814.11045 624.79632,809.66133 L 632.52122,805.66881 L 644.29632,805.80396 C 663.74282,806.02716 672.69252,801.84154 681.749,788.28797 C 684.00553,784.91093 686.9979,780.9104 688.3987,779.3979 C 691.27058,776.29702 695.58092,775.74948 697.63508,778.2246 C 698.72655,779.53973 698.6333,780.37753 697.07301,783.27483 C 694.73271,787.62049 680.68119,802.7206 674.23163,807.82073 C 669.40211,811.63977 669.37195,811.6479 660.03003,811.6479 C 651.85274,811.6479 649.05232,812.16102 637.89695,815.70331 C 619.28128,821.61454 605.59034,823.00095 594.71708,820.07588 z M 550.2381,806.98123 C 548.81383,805.55697 549.6816,802.62182 551.9703,801.1222 C 554.7404,799.30717 555.86236,796.61312 557.49383,787.8591 C 558.75525,781.09067 567.4992,758.55952 572.81132,748.3894 C 576.04767,742.19339 576.07053,742.04951 575.94854,728.6479 C 575.78327,710.49085 573.07333,696.34035 567.52583,684.66691 C 563.19851,675.56107 562.88669,673.10836 565.82143,671.2602 C 568.71686,669.43679 570.74658,671.55894 575.78698,681.67955 C 582.9822,696.12685 583.83183,700.66361 583.34465,722.03541 L 582.93176,740.1479 L 577.35205,751.6479 C 570.31956,766.14212 566.06222,778.22306 564.17331,789.04488 C 563.36111,793.69805 562.00022,798.85183 561.1491,800.49771 C 558.66521,805.30102 552.32522,809.06836 550.2381,806.98123 z M 323.3194,772.24456 C 318.83509,770.61629 313.76478,766.88492 307.32143,760.47125 C 302.44779,755.62006 301.15951,752.88841 304.32143,754.11006 C 305.28393,754.48193 308.24373,755.20003 310.89877,755.70583 C 317.00166,756.86847 317.20314,757.00567 319.54312,761.59241 C 321.78067,765.97837 323.05755,766.6479 329.1846,766.6479 C 332.38162,766.6479 333.81092,767.10842 334.26196,768.28382 C 335.93619,772.6468 330.17258,774.73298 323.3194,772.24456 z M 304.07143,737.25376 C 302.42143,736.52709 295.34715,731.60468 288.3508,726.31507 C 281.35446,721.02545 271.90446,714.2766 267.3508,711.31761 C 255.35371,703.52183 250.36423,698.67614 243.10233,687.76791 C 235.19473,675.88977 233.19759,671.33902 233.92504,666.85625 C 234.4857,663.40134 236.14294,660.6479 237.66173,660.6479 C 238.12671,660.6479 239.69094,664.5854 241.1378,669.3979 C 242.58466,674.2104 244.80488,679.9479 246.07162,682.1479 C 250.81181,690.38038 266.79096,703.77291 291.90643,720.56322 C 303.97424,728.63086 310.57143,734.18042 310.57143,736.26426 C 310.57143,737.02526 310.38323,737.6479 310.15322,737.6479 C 309.9232,737.6479 309.1357,737.85649 308.40322,738.11144 C 307.67073,738.36638 305.72143,737.98043 304.07143,737.25376 z M 256.00359,724.08845 C 254.31628,723.2558 247.6199,717.97855 241.12273,712.36122 C 234.62556,706.74389 226.10609,699.43516 222.19056,696.1196 C 218.27504,692.80403 213.6399,687.96205 211.89026,685.35963 C 207.07033,678.19049 206.27152,672.27406 206.80247,647.67662 C 207.21793,628.42915 207.50478,625.5334 209.50954,620.34876 C 210.74284,617.15923 212.80331,613.33423 214.08836,611.84876 C 216.25765,609.34115 216.47729,609.28301 217.15818,611.03619 C 217.56153,612.07475 217.36771,619.49975 216.72747,627.53619 C 213.34189,670.03286 213.28711,672.21672 215.48234,677.17939 C 218.00031,682.87168 224.06571,688.83107 243.69,704.89401 C 259.40752,717.75917 263.50728,722.31205 261.3327,724.48663 C 259.87886,725.94047 259.73476,725.9297 256.00359,724.08845 z M 329.5545,684.63097 C 327.68402,682.76049 327.6473,682.40186 329.04879,679.69168 C 332.45009,673.1143 337.08892,672.65458 339.57182,678.64883 C 340.72632,681.43605 340.62853,681.95821 338.53465,684.18705 C 335.72962,687.17287 332.26754,687.34401 329.5545,684.63097 z M 407.61478,663.23873 C 405.25179,658.28752 402.88762,655.32113 397.80613,650.93153 C 385.35832,640.17859 376.37243,631.17493 372.07337,625.1479 C 367.34308,618.51632 349.96139,588.39263 344.08835,576.6479 C 338.46591,565.40433 332.90796,558.17422 321.43876,547.18397 C 307.61237,533.93497 305.57143,531.28221 305.57143,526.56009 C 305.57143,522.19995 307.81393,520.17213 310.84295,521.79321 C 311.84569,522.32987 317.15656,528.83412 322.64489,536.24711 C 328.13321,543.66011 335.36734,552.29537 338.72074,555.43659 C 344.00013,560.38195 345.80199,563.13532 352.15622,575.96708 C 361.35307,594.53924 365.85574,600.95327 395.35888,637.50901 C 411.10376,657.01765 413.7399,661.12655 413.36227,665.5706 C 412.89763,671.03866 410.96267,670.25361 407.61478,663.23873 z M 571.12777,658.33424 C 569.61063,655.74544 568.57143,652.44115 568.57143,650.20597 C 568.57143,646.92194 569.33938,645.68832 574.56981,640.57035 C 581.24397,634.03968 585.61866,631.37163 588.88911,631.83722 C 590.6814,632.09237 591.12639,632.90748 591.37893,636.3979 L 591.68643,640.6479 L 587.82509,640.6479 C 584.78062,640.6479 583.29835,641.33543 580.81828,643.8979 C 576.62449,648.23103 574.51278,653.51166 575.22317,657.88926 C 576.06973,663.10602 574.05265,663.32518 571.12777,658.33424 z M 224.00991,644.19436 C 222.32983,641.63023 222.41013,638.58234 224.63024,620.6479 C 226.69025,604.00682 227.48327,590.0515 226.59072,586.1479 C 226.02797,583.68666 224.5981,581.30374 222.87378,579.9535 C 216.73471,575.14627 215.57143,573.68094 215.57143,570.75506 C 215.57143,569.12469 216.27857,567.08361 217.14286,566.21933 C 223.47216,559.89003 232.5657,573.73471 234.71324,592.96978 C 235.75198,602.2736 234.45298,627.27702 232.42131,637.08504 C 230.53138,646.20882 227.18375,649.03824 224.00991,644.19436 z M 510.66771,633.99832 C 505.67861,629.72783 501.85404,628.79203 488.57143,628.59177 C 483.34643,628.51299 477.94643,628.13745 476.57143,627.75723 C 472.69568,626.68548 472.89254,623.45116 477.05603,619.79557 C 481.15121,616.19995 484.68978,615.85492 498.24907,617.72914 C 506.29057,618.84067 513.00029,621.58501 519.15626,626.2804 C 525.44259,631.07522 525.85494,634.65621 520.34203,636.57802 C 515.86033,638.14035 515.34675,638.0034 510.66771,633.99832 z M 399.49777,618.95416 C 398.93448,617.4726 398.60812,614.8851 398.77252,613.20416 C 399.18205,609.01679 403.43251,608.41807 407.05231,612.03787 C 411.59812,616.58368 409.90885,621.6479 403.84668,621.6479 C 401.15664,621.6479 400.32641,621.13365 399.49777,618.95416 z M 510.32143,614.07593 C 504.40733,610.86747 509.56826,603.79077 516.01742,606.26555 C 519.09208,607.44541 519.69104,610.22612 517.47684,613.04103 C 515.13587,616.01709 514.15977,616.15826 510.32143,614.07593 z M 681.17842,608.06611 C 679.64908,604.08073 680.65537,591.03342 682.98458,584.6479 C 692.01735,559.88454 700.29088,538.76382 704.54265,529.61431 C 707.92489,522.33598 709.86898,516.56592 710.63373,511.53592 C 713.02183,495.82883 723.56073,475.54851 744.61337,446.1479 C 759.59153,425.23047 765.57143,412.54242 765.57143,401.67945 C 765.57143,396.98123 766.01355,395.20578 767.57143,393.6479 C 770.10254,391.11679 771.01822,391.13772 773.4827,393.78303 C 776.03702,396.52477 776.93714,400.72347 776.12774,406.12096 C 775.13392,412.74823 764.41152,433.42001 754.06173,448.66218 C 743.23672,464.60421 728.69804,489.02789 724.0091,499.1479 C 722.22527,502.9979 720.01332,510.1979 719.09365,515.1479 C 718.06188,520.7013 716.3325,526.06268 714.57778,529.1479 C 713.01371,531.8979 709.05617,539.9979 705.78323,547.1479 C 702.51028,554.2979 697.19045,565.5479 693.96137,572.1479 L 688.09032,584.1479 L 688.32996,594.2642 C 688.54158,603.19726 688.3273,604.68855 686.49794,607.0142 C 684.15514,609.99259 682.07549,610.40383 681.17842,608.06611 z M 124.25926,606.27677 C 123.9592,605.49483 125.68549,603.02399 128.27656,600.52677 C 130.77546,598.11839 134.83226,593.4479 137.29166,590.1479 C 139.75106,586.8479 146.18097,580.5479 151.58033,576.1479 C 156.9797,571.7479 163.24699,565.7854 165.50765,562.8979 C 167.76831,560.0104 170.08706,557.6479 170.66042,557.6479 C 173.05407,557.6479 175.57143,559.87206 175.57143,561.98692 C 175.57143,564.78322 172.00102,568.17313 159.07143,577.65275 C 153.57143,581.6852 144.03274,590.08374 137.87434,596.31619 C 131.71594,602.54863 126.25159,607.6479 125.73133,607.6479 C 125.21107,607.6479 124.54864,607.03089 124.25926,606.27677 z M 644.56047,575.3979 C 643.47061,573.6104 642.57722,571.34926 642.57517,570.37315 C 642.56954,567.70261 647.28111,566.2585 651.7028,567.5755 C 658.37436,569.56262 659.23204,573.64502 653.66842,576.93153 C 649.29209,579.5167 646.81772,579.10006 644.56047,575.3979 z M 113.28028,560.02342 C 112.05807,558.80121 112.50448,554.67858 114.21964,551.34824 C 117.27405,545.41749 120.53595,541.9849 125.8171,539.1439 C 137.94731,532.61845 141.45585,529.8224 144.67791,524.11323 C 148.53959,517.2707 151.35169,515.22109 155.59836,516.15381 C 161.83421,517.52344 160.76804,520.80389 150.44646,532.00549 C 146.07339,536.75141 142.64369,539.58345 140.82999,539.94619 C 136.16691,540.8788 122.98345,551.17163 120.36841,555.92132 C 118.18578,559.88561 114.99124,561.73438 113.28028,560.02342 z M 734.12813,557.42539 C 733.24656,556.16677 732.57143,553.13093 732.57143,550.42539 C 732.57143,545.87865 732.70425,545.64822 735.32143,545.65449 C 740.28049,545.66637 747.42648,551.97729 746.17468,555.23943 C 745.57814,556.79398 739.74245,559.6479 737.16025,559.6479 C 736.34877,559.6479 734.98432,558.64777 734.12813,557.42539 z M 452.2217,549.1789 C 450.86226,545.63625 451.5238,540.74376 453.50569,539.68308 C 457.21154,537.69977 462.25811,538.43412 464.49885,541.28276 C 465.63877,542.73193 466.57143,544.46219 466.57143,545.12777 C 466.57143,547.52372 462.51338,549.94706 457.73183,550.40651 C 453.80846,550.7835 452.74666,550.54694 452.2217,549.1789 z M 331.57143,542.6479 C 329.10648,540.18295 329.10606,539.92342 331.56047,535.8979 C 333.88265,532.08926 336.78639,531.689 339.01473,534.87041 C 341.15042,537.91954 340.97711,539.33313 338.11688,542.19335 C 335.14132,545.16892 334.16056,545.23703 331.57143,542.6479 z M 124.2381,519.98123 C 122.68268,518.42582 123.79495,515.57919 126.87649,513.22879 C 130.9895,510.09165 139.25983,506.37066 140.86854,506.93349 C 142.16866,507.38836 136.64217,512.98485 130.17139,517.76614 C 126.07914,520.78992 125.32743,521.07056 124.2381,519.98123 z M 471.23564,517.39309 C 468.38929,515.30953 469.36973,510.49753 472.99288,508.76855 C 476.38166,507.15141 478.28499,507.95997 480.57143,511.98805 C 481.70629,513.98737 481.80335,515.05874 480.97015,516.38927 C 479.59404,518.58679 473.69707,519.19489 471.23564,517.39309 z M 574.79394,515.0912 C 573.57156,514.23501 572.57143,512.61555 572.57143,511.49241 C 572.57143,508.77703 578.1753,503.6479 581.142,503.6479 C 585.94241,503.6479 587.18781,511.2313 582.93657,514.57532 C 579.78795,517.05203 577.77545,517.17953 574.79394,515.0912 z M 205.62785,502.9925 C 203.19489,499.89949 203.29608,498.84737 207.67618,481.6947 C 211.99424,464.785 215.71403,458.50411 217.06971,465.83369 C 217.92692,470.46827 215.93527,493.13893 214.15089,499.05822 C 211.99106,506.22298 209.18707,507.51732 205.62785,502.9925 z M 687.13005,485.31442 C 685.52277,484.13915 685.44936,483.5478 686.51131,480.33006 C 687.79219,476.44896 691.74803,472.6479 694.50629,472.6479 C 697.25186,472.6479 698.57143,474.80436 698.57143,479.2912 C 698.57143,482.54248 698.05184,483.89842 696.34892,485.0912 C 693.62343,487.00021 689.56973,487.09836 687.13005,485.31442 z M 873.71362,484.10153 C 870.60358,480.14776 866.32407,459.53685 868.35284,458.283 C 869.65581,457.47772 875.39936,463.99182 877.2125,468.33128 C 879.30449,473.33813 880.11963,483.28243 878.5892,485.12648 C 876.85042,487.22159 876.03262,487.04967 873.71362,484.10153 z M 195.80975,477.48622 C 194.24954,475.92601 194.18378,465.07303 195.69811,459.05911 C 196.96467,454.02913 202.44408,448.6479 206.29927,448.6479 C 209.31825,448.6479 209.17703,450.12921 205.38567,458.23117 C 203.27087,462.7504 202.01022,467.24242 201.63567,471.59345 C 201.15541,477.17239 200.77203,478.19081 199.05975,478.43622 C 197.95333,478.5948 196.49083,478.1673 195.80975,477.48622 z M 408.81956,476.55117 C 403.51372,474.98249 381.83834,465.05255 375.89728,461.46879 C 366.4356,455.76133 355.41181,443.6479 359.67942,443.6479 C 360.28882,443.6479 368.72632,448.32127 378.42942,454.03316 C 407.51811,471.1567 409.45001,471.89814 415.05956,468.09139 C 418.21365,465.95097 419.72823,465.60392 424.82795,465.85305 C 436.21965,466.40956 434.81512,472.06822 422.57143,474.94427 C 418.99643,475.78403 415.17143,476.70545 414.07143,476.99185 C 412.97143,477.27825 410.60809,477.07995 408.81956,476.55117 z M 164.68032,463.8979 C 161.21598,457.07578 158.43069,454.33288 149.05225,448.50769 C 138.33724,441.85233 137.02712,440.79221 138.14089,439.67844 C 139.2351,438.58424 150.96656,441.11229 161.02374,444.60954 C 168.02157,447.04295 171.08006,449.62902 172.67471,454.46086 C 173.75163,457.72395 173.65176,458.11395 171.30061,459.82664 C 169.11344,461.41989 168.83864,462.22122 169.29998,465.66074 C 170.07585,471.4453 168.13731,470.70556 164.68032,463.8979 z M 689.74574,446.33345 C 686.72435,443.11732 687.00633,440.41293 690.58338,438.29991 C 693.98334,436.2915 696.85576,436.76561 700.28276,439.90082 C 702.96203,442.35197 702.03729,444.83852 697.59145,447.13755 C 693.63425,449.1839 692.29461,449.0466 689.74574,446.33345 z M 326.5948,440.13908 C 323.58265,437.70118 320.87487,435.01295 320.57751,434.16523 C 320.28014,433.31751 318.46963,431.84181 316.55414,430.88591 C 314.59547,429.90845 310.11762,425.4566 306.32143,420.7126 C 296.81765,408.83596 297.24992,406.17304 307.40588,414.03212 C 310.52193,416.44344 314.09089,418.938 315.33689,419.57558 C 316.77686,420.31241 318.03079,422.33669 318.77814,425.13095 C 319.61143,428.24652 320.58025,429.68428 322.10405,430.06673 C 323.28662,430.36354 326.23806,433.32733 328.6628,436.65293 C 335.65117,446.23766 335.15771,447.06952 326.5948,440.13908 z M 479.18106,440.10937 C 474.84135,439.28931 463.36635,435.8715 453.68106,432.51423 C 443.99576,429.15697 428.19643,423.97769 418.57143,421.00474 C 392.03523,412.80828 374.05807,406.72423 372.06147,405.26428 C 369.42613,403.33726 371.06943,401.60501 374.8602,402.31405 C 381.12963,403.48672 417.38824,414.68799 438.57143,421.99618 C 462.00343,430.08021 474.17272,433.21577 478.19615,432.20595 C 480.42558,431.6464 480.69373,431.17854 480.1186,428.8518 C 478.51366,422.35892 478.42899,420.85396 479.62702,420.11355 C 481.20914,419.13574 483.57143,422.24192 483.57143,425.30007 C 483.57143,433.16381 504.12031,437.31541 518.57523,432.37208 C 522.15232,431.14878 532.74975,426.00953 542.12508,420.95152 C 553.36743,414.88625 562.13713,410.89563 567.88256,409.23067 C 578.93939,406.02653 579.3662,405.78373 587.97614,397.80049 C 593.36474,392.80412 596.52103,390.71381 600.63485,389.41704 C 604.24903,388.27777 608.32096,385.81439 612.59326,382.18258 C 620.21889,375.70018 622.03101,375.21064 621.05044,379.8979 C 620.20952,383.91763 620.00436,384.10944 609.57143,390.62946 C 604.89643,393.55108 597.96865,398.42258 594.17637,401.45501 C 583.30907,410.14483 577.34879,413.28974 567.41015,415.57806 C 560.66432,417.13124 553.80219,419.92953 540.22879,426.66227 C 513.37165,439.98407 497.27793,443.52906 479.18106,440.10937 z M 168.07143,438.25905 C 166.42143,437.53824 163.72143,435.81735 162.07143,434.43485 C 157.65008,430.73029 152.29081,428.28996 140.77312,424.73672 C 129.52261,421.26591 127.68506,419.59381 131.61983,416.40763 C 133.29052,415.05478 135.13187,414.58664 137.78659,414.83981 C 139.86825,415.03833 141.57143,414.81959 141.57143,414.35373 C 141.57143,413.88787 139.71849,411.30924 137.45379,408.62344 C 132.6435,402.91871 131.6912,398.20491 133.545,389.2752 C 135.20125,381.29709 137.37636,381.8987 139.66517,390.96797 C 142.02087,400.30227 143.18999,402.98115 148.69034,411.6479 C 155.89246,422.99609 158.98541,425.57697 166.67622,426.65605 C 171.93969,427.39454 173.55809,428.0954 175.82143,430.61639 C 181.87382,437.35779 177.00321,442.16094 168.07143,438.25905 z M 280.04716,431.17147 C 267.25699,424.50478 254.88274,414.01817 251.04193,406.59086 C 248.21018,401.11484 248.97143,392.60826 253.45542,379.62156 C 260.47055,359.30406 262.75004,355.1863 268.69465,352.09277 C 273.77028,349.45145 273.82407,352.80126 268.94876,367.91639 C 266.95629,374.09372 263.80629,382.17417 261.94876,385.87294 C 259.44668,390.85515 258.57143,393.906 258.57143,397.64528 C 258.57143,402.18055 258.99571,403.15287 262.75371,407.22982 C 265.05396,409.7253 270.56646,414.28572 275.00371,417.36409 C 284.17216,423.72477 290.57143,429.4597 290.57143,431.31566 C 290.57143,432.00969 289.70255,433.04254 288.64059,433.61089 C 287.11113,434.42943 285.32471,433.92232 280.04716,431.17147 z M 580.67571,421.73351 C 578.58292,420.40836 580.10538,417.74057 583.84647,416.17745 C 585.6632,415.41837 593.61893,413.81748 601.52586,412.61991 C 609.43279,411.42234 617.68428,409.81373 619.86249,409.04521 C 626.2452,406.79326 627.57143,407.12918 627.57143,410.99785 L 627.57143,414.3478 L 615.2014,417.02173 C 600.60778,420.17632 586.87573,422.65077 584.07143,422.63122 C 582.97143,422.62355 581.44336,422.21958 580.67571,421.73351 z M 345.07143,410.25829 C 328.66309,404.3368 328.05355,404.06954 322.74577,400.46923 C 315.64172,395.65049 306.17387,387.66066 305.23229,385.68978 C 304.77077,384.72372 302.8811,383.21226 301.03302,382.33098 C 298.29821,381.02683 297.3843,379.75685 296.12216,375.50677 C 294.10163,368.70289 294.07877,363.6479 296.06855,363.6479 C 298.31762,363.6479 305.57143,370.60667 305.57143,372.76426 C 305.57143,373.80026 306.04169,374.6479 306.61646,374.6479 C 307.19122,374.6479 312.46687,379.6401 318.34011,385.74168 C 324.21336,391.84325 330.66094,397.67324 332.66808,398.6972 C 334.67521,399.72117 341.88707,402.2039 348.69442,404.21439 C 363.76843,408.66636 364.7806,409.16646 364.38211,411.96556 C 363.8673,415.58175 358.51028,415.10814 345.07143,410.25829 z M 632.20455,407.02342 L 630.33767,404.46178 L 634.29398,400.30484 C 640.69366,393.58061 655.0118,376.47814 657.86689,372.1479 C 659.31744,369.9479 662.32888,363.66259 664.55899,358.18054 C 668.90745,347.49116 672.5555,342.6479 676.25852,342.6479 C 679.40566,342.6479 679.26012,344.85962 675.487,354.37187 C 668.51382,371.9517 659.49964,386.16844 646.54672,400.01516 C 641.373,405.54588 635.99503,409.78678 634.37109,409.61648 C 634.20628,409.59919 633.23133,408.43232 632.20455,407.02342 z M 656.2381,408.98123 C 655.87143,408.61457 655.57143,407.76324 655.57143,407.08939 C 655.57143,405.27333 664.3949,395.79055 667.65181,394.10633 C 671.54113,392.09509 675.57143,392.19892 675.57143,394.31035 C 675.57143,396.58886 669.9007,405.24373 666.82012,407.66692 C 664.38628,409.58138 657.67216,410.41529 656.2381,408.98123 z M 436.22642,404.81916 C 434.33723,402.73163 433.99935,395.12941 435.55473,389.70614 C 436.09554,387.82043 437.91487,384.85704 439.59767,383.12083 C 442.23649,380.39826 442.45342,379.79485 441.17485,378.73373 C 440.35949,378.05704 438.43261,377.6484 436.8929,377.82564 C 434.62679,378.0865 433.29515,379.47748 429.90337,385.12664 C 425.68338,392.15522 422.99222,394.40709 420.12664,393.30746 C 417.27996,392.21509 418.51339,389.53323 424.63412,383.50679 C 431.90221,376.35067 432.09189,374.28113 425.51903,373.85155 C 421.49842,373.58877 420.66141,373.91795 418.13211,376.75665 L 415.2796,379.95812 L 393.17551,379.31239 C 381.01827,378.95725 367.24643,378.2033 362.57143,377.63695 C 357.89643,377.0706 348.64036,376.20644 342.00238,375.71659 C 327.97188,374.6812 323.81254,373.23423 317.57143,367.21738 C 311.89901,361.74879 309.39977,360.45764 302.68983,359.52928 C 299.72995,359.11976 296.83373,358.3102 296.2538,357.73027 C 294.90104,356.37751 298.09789,338.76898 300.2555,335.68856 C 301.1812,334.36694 302.59699,333.65274 303.91799,333.841 C 306.96675,334.2755 307.41678,339.57289 304.61995,342.10399 C 302.03672,344.44178 302.01372,345.6479 304.55238,345.6479 C 305.86523,345.6479 306.78586,346.57537 307.2821,348.3979 C 308.00414,351.04976 308.04943,351.00937 308.55115,347.26609 C 309.04738,343.56372 309.4574,343.18095 317.42105,338.9857 C 326.68503,334.10543 334.33583,329.11564 345.57143,320.62625 C 349.69643,317.50948 359.14643,310.87741 366.57143,305.88831 C 373.99643,300.89922 381.34499,295.47937 382.90156,293.84421 C 386.02595,290.56206 387.51128,285.62389 387.54757,278.3979 C 387.56945,274.0417 387.77277,273.6479 390,273.6479 C 392.97078,273.6479 394.99544,271.71843 397.71718,266.29357 C 399.92584,261.89137 403.3756,257.6479 404.74574,257.6479 C 406.81855,257.6479 405.01775,262.64823 398.07143,276.18066 C 389.93837,292.02503 388.83804,296.64985 392.70858,298.7213 C 395.72056,300.33326 401.1574,299.20107 405.19568,296.12093 C 408.23817,293.80031 408.56253,293.1174 408.01319,290.18912 C 407.49967,287.45184 407.89692,286.31516 410.31156,283.61272 C 412.72636,280.91009 413.69802,280.46286 415.9351,281.02433 C 417.42249,281.39764 419.14131,282.80453 419.75469,284.15076 C 420.69459,286.21362 420.4747,287.19568 418.35611,290.39708 C 416.97352,292.48632 413.28958,296.16512 410.16958,298.57218 C 405.70319,302.01797 403.45021,303.04922 399.57503,303.42158 C 395.33676,303.82882 394.22023,303.53017 391.53559,301.2712 C 389.82091,299.82839 387.65834,298.6479 386.7299,298.6479 C 382.59555,298.6479 368.81788,308.41729 338.07143,333.15036 C 329.82143,339.78683 322.01015,345.95274 320.71302,346.85237 C 315.75308,350.29239 320.99098,351.82244 328.57143,349.1479 C 334.88808,346.91926 337.55384,347.28136 343.29533,351.1479 C 350.04404,355.69275 351.75394,355.6284 353.90691,350.74859 C 355.06381,348.1264 356.79106,346.29703 359.18057,345.16314 C 363.81528,342.96382 364.45689,343.80688 361.14438,347.74357 C 357.30195,352.31004 357.98761,355.05999 363.07143,355.47235 C 365.27143,355.6508 367.43129,356.4383 367.87112,357.22235 C 368.82076,358.91521 370.74883,359.00404 375.84217,357.58959 C 378.56446,356.8336 380.30577,355.44489 382.10472,352.59517 C 383.47521,350.42417 385.09883,348.6479 385.71277,348.6479 C 386.32671,348.6479 388.54422,350.19747 390.64056,352.09139 C 395.39574,356.38741 401.26405,357.78875 403.23151,355.09809 C 403.96847,354.09024 404.57143,352.00165 404.57143,350.45677 C 404.57143,347.42579 407.94893,343.27145 409.88393,343.92237 C 410.59202,344.16057 411.1154,346.57223 411.18035,349.89603 C 411.33282,357.69887 411.86692,358.6479 416.10579,358.6479 C 421.98373,358.6479 423.57143,357.24409 423.57143,352.04697 C 423.57143,347.00365 424.94112,343.6479 426.99962,343.6479 C 428.84016,343.6479 429.57143,345.90182 429.57143,351.5747 C 429.57143,360.45415 436.45566,362.64786 437.57143,354.12396 C 438.22559,349.12652 439.85209,348.74791 442.46994,352.98369 C 445.118,357.26834 449.29999,359.10516 454.30476,358.1818 C 456.37643,357.79958 464.59643,355.29554 472.57143,352.61725 C 484.5688,348.58811 488.84582,347.6277 497.35207,347.05271 C 503.00642,346.67049 507.87355,345.96807 508.16792,345.49177 C 508.70221,344.62727 506.40022,342.13788 499.19012,335.78311 C 495.77998,332.77752 495.53415,332.25661 496.8873,330.90346 C 499.2777,328.51306 503.20509,330.15685 509.5397,336.19904 C 515.55357,341.9353 518.08918,342.73601 523.06337,340.46962 C 527.04355,338.65613 525.70727,336.47368 518.40096,332.85491 C 510.91228,329.1458 509.7379,327.48143 512.59411,324.62522 C 515.63867,321.58066 518.99512,322.22778 525.67863,327.1479 C 532.48466,332.15822 536.77556,332.92269 540.61976,329.80985 C 543.48822,327.48711 542.62199,326.05693 537.83248,325.20795 C 529.3966,323.71261 528.34129,321.70223 533.64816,317.23679 C 537.1963,314.25123 538.35186,314.11149 543.09711,316.09418 C 546.31184,317.43738 546.6328,317.40174 547.60018,315.59418 C 548.99413,312.98956 550.28349,313.12356 557.73164,316.64711 C 565.09481,320.13046 569.38016,320.37149 575.3976,317.64073 C 578.47544,316.24398 579.62877,315.16824 579.39451,313.91269 C 579.21342,312.94205 575.24164,309.63064 570.56834,306.55399 C 564.93933,302.84815 562.07143,300.33018 562.07143,299.09382 C 562.07143,296.41743 568.16534,292.6479 572.49207,292.6479 C 576.30632,292.6479 588.36014,298.96067 589.32797,301.46512 C 590.42513,304.30425 587.89322,304.84167 581.65996,303.0927 C 578.2813,302.1447 575.27829,301.60771 574.98661,301.89939 C 574.69493,302.19107 575.93462,303.48239 577.74147,304.76898 C 580.19053,306.51286 582.68673,307.19361 587.54905,307.44363 C 593.60828,307.7552 594.47974,307.52036 599.82143,304.13638 C 606.77553,299.73095 607.36602,297.24029 601.82143,295.70048 C 599.75893,295.1277 596.79643,294.65654 595.2381,294.65348 C 591.51377,294.64615 592.22081,292.46671 596.32982,291.28826 C 598.86518,290.56113 600.28893,290.87793 604.12742,293.0233 C 609.48107,296.01552 613.14455,296.33562 616.34892,294.0912 C 620.70566,291.03962 619.30502,289.85391 605.74752,285.11656 C 603.8581,284.45634 604.74428,281.23829 606.93152,280.81707 C 607.94193,280.62248 611.36803,281.62981 614.54508,283.05559 C 623.32721,286.99677 625.69843,286.61247 635.57143,279.6479 C 640.24643,276.35008 644.35766,273.65097 644.70749,273.64988 C 645.60762,273.64708 648.47729,279.92718 649.17892,283.43533 C 649.5031,285.05624 649.22383,289.02966 648.55833,292.26517 C 647.5052,297.38521 646.60563,298.89338 641.61987,303.8979 C 632.80996,312.74096 630.88235,310.67599 638.26125,300.29994 C 640.15743,297.63357 641.45752,295.20066 641.15034,294.89347 C 640.15012,293.89326 632.21935,298.03538 625.57143,303.03009 C 621.99643,305.71606 618.84643,308.19137 618.57143,308.53078 C 618.29643,308.8702 614.80893,311.28899 610.82143,313.90587 C 606.24296,316.91059 603.57143,319.331 603.57143,320.47437 C 603.57143,323.7214 606.54054,332.37737 608.09756,333.66959 C 610.14372,335.36775 616.72855,332.43832 620.23661,328.26923 C 622.48503,325.59713 622.70012,324.6757 622.11142,320.23781 C 621.46535,315.36755 621.50028,315.27353 623.33766,316.93634 C 625.66389,319.04155 626.95648,319.0938 628.57143,317.1479 C 630.78731,314.47793 631.57143,315.53641 631.57143,321.19756 C 631.57143,327.2906 630.12224,330.87663 626.16644,334.57221 C 624.73919,335.90559 623.57143,337.97214 623.57143,339.16457 C 623.57143,341.11681 616.7894,348.00237 608.45631,354.51043 C 601.86255,359.6601 591.6039,362.91104 578.07143,364.13931 C 558.92427,365.87721 556.5867,367.53819 562.06989,375.50935 C 567.51747,383.42873 568.61363,392.6479 564.10767,392.6479 C 561.55527,392.6479 559.87308,389.85939 557.14279,381.10237 C 555.50495,375.84925 553.44282,371.42838 551.92,369.90556 C 549.70914,367.6947 548.81508,367.4589 544.55592,367.96333 C 538.87303,368.63639 531.57143,372.08212 531.57143,374.0909 C 531.57143,374.86219 534.11565,377.66555 537.22524,380.32058 C 544.70046,386.70305 548.05638,394.75711 543.90443,396.35036 C 542.68806,396.81712 539.89588,394.51091 533.57535,387.81897 C 525.76444,379.5491 524.55833,378.6479 521.30136,378.6479 C 514.17228,378.6479 515.21924,381.46841 524.84187,388.18608 C 532.54534,393.56396 534.51809,396.6479 530.25476,396.6479 C 528.89077,396.6479 524.95312,394.55412 521.43144,391.95623 C 506.96533,381.28484 503.81505,380.73922 484.9494,385.6376 C 472.15261,388.96022 470.66151,388.88012 459.85156,384.28935 C 452.01527,380.96144 450.34771,380.98249 446.45742,384.45846 C 443.17768,387.3889 441.75992,392.33348 441.63104,401.29091 C 441.59053,404.10623 441.06452,405.62844 439.98964,406.04091 C 437.90731,406.83998 438.11678,406.90799 436.22642,404.81916 z M 477.55345,375.16957 C 478.42804,374.11575 478.5181,372.60817 477.86706,369.91957 L 476.95377,366.1479 L 470.5126,366.45513 C 463.37303,366.79568 462.99895,366.98948 462.04825,370.84025 C 461.42601,373.36063 461.69295,373.62764 466.22749,375.0206 C 472.52443,376.95494 476.03342,377.00109 477.55345,375.16957 z M 488.53625,372.71364 C 489.87259,370.21667 489.87166,364.95148 488.53473,364.12522 C 487.96455,363.77283 485.71455,363.78582 483.53473,364.1541 C 478.94118,364.93018 478.57819,366.30474 481.65299,371.27987 C 483.98003,375.0451 486.95666,375.66512 488.53625,372.71364 z M 511.81763,367.99935 C 523.4201,365.18219 525.57143,363.94291 525.57143,360.07647 C 525.57143,357.04787 524.94402,357.033 509.18252,359.68797 C 495.69488,361.95992 493.56974,362.47425 493.57517,363.46529 C 493.58547,365.34692 497.75581,370.6479 499.22581,370.6479 C 500.15189,370.6479 505.81821,369.45605 511.81763,367.99935 z M 546.57857,357.14421 C 549.07105,355.8553 549.63113,354.99562 549.38234,352.84072 C 548.99925,349.52271 547.57328,349.53479 538.26832,352.93488 C 530.03841,355.94215 529.51839,356.39356 532.073,358.31283 C 534.50487,360.13988 541.94464,359.54051 546.57857,357.14421 z M 560.04687,353.48856 C 562.43105,351.61316 562.72283,350.81333 562.26581,347.40597 C 561.97639,345.24819 561.4849,343.22804 561.17361,342.91675 C 560.14532,341.88846 551.57143,347.10714 551.57143,348.76132 C 551.57143,350.53197 555.23959,355.6479 556.50915,355.6479 C 556.94506,355.6479 558.53703,354.6762 560.04687,353.48856 z M 585.32143,351.04692 C 586.55893,350.2521 587.57143,348.98517 587.57143,348.23151 C 587.57143,346.06488 578.30632,332.6479 576.81016,332.6479 C 574.72536,332.6479 563.57143,340.55685 563.57143,342.03512 C 563.57143,344.12659 569.43724,351.65187 571.86189,352.67099 C 574.68184,353.85628 582.39677,352.92537 585.32143,351.04692 z M 599.68908,343.76555 C 602.63926,340.81537 603.57143,339.08627 603.57143,336.56415 C 603.57143,332.73175 598.05138,322.93501 595.42172,322.10038 C 593.44856,321.47413 583.72496,326.08424 582.99237,327.99333 C 582.39921,329.53908 588.71125,343.64486 591.03667,345.97028 C 593.56941,348.50302 595.42423,348.03039 599.68908,343.76555 z M 625.57143,374.27363 C 625.57143,371.11285 629.56595,364.69042 634.76622,359.49015 C 642.62305,351.63332 650.22473,340.29313 659.6303,322.3979 C 666.02248,310.23602 668.57143,306.57364 668.57143,309.55112 C 668.57143,311.73812 661.09625,331.64176 657.86,338.07171 C 651.96601,349.78221 631.33281,374.6479 627.5096,374.6479 C 626.44361,374.6479 625.57143,374.47948 625.57143,374.27363 z M 461.2355,348.4712 C 459.79566,347.19339 454.78222,338.83331 450.09452,329.89325 C 442.78693,315.95672 441.57143,312.94367 441.57143,308.7657 C 441.57143,303.88002 443.15899,301.13704 445.22382,302.4551 C 446.76494,303.43885 450.86245,311.82813 455.55621,323.60971 C 457.77479,329.17845 461.19687,336.92553 463.16084,340.82545 C 466.26783,346.99509 466.54474,348.10316 465.29254,349.35536 C 464.04035,350.60755 463.51332,350.4927 461.2355,348.4712 z M 701.2381,348.98123 C 700.87143,348.61457 700.57143,345.98595 700.57143,343.13986 C 700.57143,339.09371 701.46622,336.15863 704.67426,329.68181 C 709.29448,320.35388 712.01992,308.04472 711.17526,300.32072 C 710.51336,294.26806 706.85322,286.19215 701.18195,278.27101 C 695.10519,269.78354 688.65813,262.6479 687.06644,262.6479 C 684.93459,262.6479 674.59579,273.60687 668.10517,282.74657 C 654.32214,302.15499 638.60574,323.37453 637.06947,324.64953 C 635.66801,325.81263 635.28193,325.80269 634.51053,324.5836 C 633.25666,322.60206 633.34628,317.95646 634.68901,315.33216 C 635.30367,314.13082 639.09171,309.9979 643.10687,306.1479 C 649.81275,299.71785 650.50179,298.67605 651.56956,293.35275 C 652.85888,286.92491 652.18471,280.71023 649.70318,276.1479 C 648.80572,274.4979 648.07143,272.0229 648.07143,270.6479 C 648.07143,268.52683 647.60184,268.14252 644.97331,268.11242 C 641.46954,268.0723 636.20115,265.05604 637.09858,263.60397 C 637.42357,263.07813 643.40041,262.64127 650.38045,262.63316 C 663.99592,262.61734 667.85074,261.62595 668.37358,258.00564 C 668.75459,255.36739 663.89471,251.12721 658.79038,249.64442 C 655.62923,248.72613 614.59272,246.89019 600.57143,247.03976 C 598.09643,247.06616 590.55893,246.9888 583.82143,246.86783 C 573.83007,246.68845 571.57143,246.37782 571.57143,245.18308 C 571.57143,244.37743 572.47688,243.23369 573.58353,242.64142 C 576.78897,240.92592 609.30132,239.3937 630.57143,239.95574 C 651.82482,240.51733 657.51589,241.56256 665.17514,246.31108 C 667.69178,247.87133 671.39799,250.14688 673.41114,251.36786 C 675.4243,252.58884 679.09643,253.85891 681.57143,254.19023 C 688.89873,255.17112 691.20851,256.51999 698.1363,263.86382 C 709.57831,275.99295 714.32532,285.33026 716.56659,300.11595 C 718.08303,310.12001 717.31592,315.94576 713.1446,326.10364 C 711.32775,330.52798 709.2757,335.9479 708.58448,338.1479 C 707.14501,342.72941 703.517,349.6479 702.55396,349.6479 C 702.1969,349.6479 701.60476,349.3479 701.2381,348.98123 z M 310.2381,331.98123 C 308.65242,330.39555 309.82302,327.25449 313.07143,324.37857 C 317.23023,320.69665 317.37161,319.90263 314.09053,318.65516 C 310.18575,317.17057 312.01222,314.99271 317.72997,314.31553 C 320.50547,313.98681 324.71133,312.58388 327.07633,311.1979 C 333.33024,307.53286 340.16652,297.6479 336.44729,297.6479 C 335.82901,297.6479 331.77238,299.25112 327.43255,301.21061 C 322.5057,303.43514 318.79626,304.53665 317.55668,304.14322 C 313.66336,302.90753 315.73578,300.1234 321.07143,299.42146 C 328.80783,298.40369 332.09061,296.2134 338.96157,287.48504 C 344.47544,280.48062 345.76808,278.0773 347.04799,272.45049 C 350.49206,257.30953 347.86324,256.37778 341.12688,270.35183 C 339.32501,274.08967 336.83626,278.0479 335.59633,279.1479 C 334.3564,280.2479 332.97313,282.11188 332.52241,283.29009 C 331.51169,285.93213 323.00621,289.48268 321.43992,287.91639 C 320.16993,286.6464 321.93664,283.01201 328.7186,272.94306 C 331.38766,268.9804 333.57143,265.25825 333.57143,264.67162 C 333.57143,264.08499 332.44643,263.09244 331.07143,262.46595 C 329.69643,261.83945 328.57143,260.98294 328.57143,260.56257 C 328.57143,260.14221 330.44247,258.01799 332.72929,255.84208 C 336.41783,252.33243 336.93845,251.26721 337.34168,246.40486 C 337.89846,239.69079 335.74181,234.53052 331.21497,231.74533 C 326.86643,229.06984 312.96455,223.6479 310.45313,223.6479 C 309.3167,223.6479 307.24272,224.5479 305.8443,225.6479 C 304.44588,226.7479 302.56253,227.6479 301.65908,227.6479 C 298.77793,227.6479 295.57143,230.62742 295.57143,233.3046 C 295.57143,235.75067 298.53124,239.16659 304.96688,244.1479 C 307.24973,245.91487 307.59555,247.00764 307.93495,253.52676 C 308.19006,258.4266 307.86927,261.7727 306.98013,263.48652 C 305.82544,265.71219 305.86499,266.3148 307.2675,267.86456 C 308.76442,269.51863 310.49555,272.20178 312.15575,275.44103 C 314.02819,279.09441 306.32374,278.78511 298.41003,274.88921 C 291.30133,271.38961 280.89781,261.79649 279.90005,257.8211 C 279.18785,254.98345 281.13206,239.05464 283.21672,230.6479 C 285.01365,223.40145 289.85538,218.99461 301.35154,214.14197 C 313.93391,208.83083 316.66985,209.01379 329.40611,216.018 C 335.09019,219.14392 340.71519,221.80193 341.90611,221.92469 C 343.78046,222.11791 344.05812,221.66678 343.97241,218.56757 C 343.81988,213.05195 339.25788,204.04603 335.38877,201.62245 C 332.42134,199.76368 330.79942,199.57632 320.01197,199.8462 C 308.57218,200.1324 307.78717,200.28706 304.73489,202.85612 C 299.87886,206.94338 296.29202,204.87739 300.82143,200.602 C 305.24269,196.42869 308.78155,195.3285 319.32143,194.85055 C 328.77791,194.42172 331.80024,193.44041 328.07143,192.00953 C 326.09702,191.25188 326.13549,188.6479 328.12109,188.6479 C 330.96271,188.6479 335.01746,191.44046 340.71576,197.32204 C 348.11807,204.96242 349.33969,207.64844 350.61534,219.08861 C 351.54117,227.39149 351.4758,228.88638 350.128,230.23418 C 348.15086,232.21133 348.17008,232.84081 350.50632,242.62228 C 351.57051,247.07788 353.00595,255.03993 353.69619,260.31573 L 354.95117,269.9081 L 352.05162,275.26831 C 349.70916,279.59865 349.39625,280.87056 350.42299,281.88821 C 352.24522,283.69432 358.70577,276.54215 361.05899,270.1136 C 366.70015,254.70304 366.99254,254.1479 369.46793,254.1479 C 370.77997,254.1479 372.32579,254.89671 372.90309,255.81192 C 374.40714,258.19633 371.74493,263.60104 361.27486,279.41906 C 352.15122,293.20291 342.82846,303.48282 331.07489,312.71959 C 326.7219,316.14047 324.57143,318.53161 324.57143,319.95086 C 324.57143,321.24217 322.34962,324.13899 318.88908,327.35958 C 313.40434,332.464 311.65527,333.39841 310.2381,331.98123 z M 470.75751,326.37212 C 469.32552,324.64667 468.78186,319.30888 469.9708,318.6479 C 471.18781,317.97131 473.82249,325.79684 472.7416,326.87773 C 472.26836,327.35097 471.38255,327.12524 470.75751,326.37212 z M 162.63291,321.70938 C 161.4991,320.57557 160.57143,319.21356 160.57143,318.6827 C 160.57143,316.31142 167.79225,309.93453 178.83766,302.55133 C 192.01182,293.74518 194.86318,293.00744 195.37543,298.27247 C 195.79141,302.54792 193.70804,304.27544 187.1474,305.09514 C 180.50632,305.92489 178.99263,307.09178 172.8264,316.1351 C 170.20606,319.97806 167.3044,323.26823 166.37827,323.44658 C 165.45214,323.62494 163.76673,322.8432 162.63291,321.70938 z M 284.93999,321.15539 C 276.83175,319.39195 273.50973,317.56202 269.13194,312.44756 C 264.30793,306.81179 264.60947,304.1479 270.07143,304.1479 C 273.94902,304.1479 274.16635,304.33151 277.1731,310.1479 C 281.09094,317.72673 282.53361,318.27278 295.24626,316.98863 C 306.45641,315.85625 307.79484,316.08029 307.3743,319.01875 C 306.86264,322.59396 296.21655,323.6079 284.93999,321.15539 z M 414.24952,307.8979 C 414.00755,307.4854 414.03029,305.69746 414.30007,303.9247 C 415.1211,298.52944 421.85688,293.39225 426.01691,294.9886 C 428.55627,295.96305 430.77914,301.39128 429.5666,303.65693 C 428.13022,306.34083 425.95636,306.16501 424.01901,303.20825 C 422.04086,300.1892 420.54276,300.68877 418.12797,305.17276 C 416.29449,308.57734 415.12861,309.39653 414.24952,307.8979 z M 298.70851,303.27876 C 293.68535,301.46095 288.09534,296.31975 282.53827,288.40677 C 277.50539,281.24021 276.33878,277.05814 279.07915,276.00656 C 281.55406,275.05685 285.37623,278.33847 289.34009,284.81637 C 296.18927,296.00958 299.87727,299.25684 306.63398,300.04354 C 310.17057,300.45531 312.10723,301.97195 311.12528,303.56077 C 310.24439,304.98608 302.96984,304.82086 298.70851,303.27876 z M 448.77524,295.97778 C 444.92837,294.80711 443.56312,293.92573 443.78623,292.75698 C 444.02588,291.50156 446.0459,290.96224 452.97681,290.30318 C 462.33314,289.41349 466.57143,290.28271 466.57143,293.09128 C 466.57143,296.79459 456.71348,298.39353 448.77524,295.97778 z M 299.84526,289.95334 C 293.62249,286.74099 289.69215,280.92739 292.54935,279.16155 C 293.08721,278.82913 296.79971,280.74035 300.79935,283.4087 C 307.44132,287.83988 308.41802,288.19973 312.07143,287.56178 C 314.27143,287.17763 316.40893,287.06641 316.82143,287.31463 C 318.21624,288.15395 317.58267,290.50979 315.82143,291.03297 C 312.44341,292.03644 302.59071,291.37061 299.84526,289.95334 z M 452.07143,287.03003 C 445.27921,284.45989 444.89721,284.42807 441.55869,286.15449 C 438.4822,287.7454 438.21573,287.73665 436.46619,285.9871 C 435.45081,284.97172 434.32973,282.68939 433.9749,280.91526 C 433.41826,278.13205 433.81343,277.2059 436.85565,274.16368 C 440.98781,270.03152 442.43411,270.27959 445.4451,275.63692 C 448.19005,280.52089 451.06633,281.59745 453.87255,278.79123 C 455.81184,276.85193 455.86943,276.27826 454.81115,269.4412 C 453.48141,260.85037 451.2736,258.23794 446.15464,259.19827 C 442.16064,259.94755 438.479,256.66912 440.5339,254.19312 C 442.21619,252.16609 447.62231,251.27848 453.19562,252.11425 C 457.1746,252.71094 458.95157,253.88431 466.16244,260.67651 C 472.27317,266.43244 475.53316,268.76236 478.29492,269.34761 C 488.13341,271.4325 526.87886,268.56847 544.735,264.43641 C 552.87437,262.55289 557.14855,262.26899 578.07143,262.22207 C 598.64201,262.17595 628.11722,263.91781 629.50476,265.26157 C 631.30448,267.0045 623.99477,267.7358 596.04021,268.60954 C 568.8961,269.45795 561.65674,270.02019 548.07143,272.33498 C 533.10195,274.88563 530.0993,275.06401 501.45183,275.10456 L 470.83224,275.1479 L 467.03001,272.44507 C 464.93879,270.95852 462.89018,269.9509 462.47755,270.20592 C 462.06491,270.46095 461.97442,273.93715 462.27647,277.93082 C 462.69131,283.41601 462.4888,285.46245 461.44853,286.29758 C 458.91037,288.33522 456.10072,288.55469 452.07143,287.03003 z M 420.2381,269.98123 C 418.74663,268.48976 419.74749,266.78217 422.72065,265.74573 C 426.89617,264.29013 428.57143,264.36091 428.57143,265.99291 C 428.57143,269.05658 422.3101,272.05324 420.2381,269.98123 z M 244.08958,262.67727 C 243.29318,261.38867 246.15005,255.84775 249.43559,252.30862 C 253.30843,248.13687 257.36133,246.37433 263.27793,246.2888 C 269.29622,246.20181 271.09453,247.42757 270.19671,251.00476 C 269.16421,255.11859 266.86256,256.6479 261.70366,256.6479 C 258.02351,256.6479 255.77286,257.41615 251.52509,260.1223 C 245.57086,263.91561 244.98033,264.11853 244.08958,262.67727 z M 320.77143,254.4479 C 318.90491,252.58138 319.35592,246.73267 321.65299,243.01593 C 324.19274,238.90653 327.61195,238.5346 329.95642,242.11272 C 332.52902,246.039 331.96688,249.09351 328.03663,252.54431 C 324.21405,255.90058 322.63726,256.31373 320.77143,254.4479 z M 508.8472,254.6273 C 491.02504,253.59124 484.02047,252.18785 480.85073,249.01811 C 475.23842,243.4058 480.95169,242.31359 493.2365,246.6503 C 499.42011,248.83321 505.42593,250.08837 513.24952,250.83286 C 527.13722,252.1544 533.02093,251.4177 535.2054,248.08378 C 537.84885,244.04937 546.51125,245.11142 545.17973,249.30669 C 543.51923,254.53845 533.23229,256.04489 508.8472,254.6273 z M 509.86551,245.32182 C 508.10225,244.67616 506.09975,243.5854 505.41551,242.8979 C 504.42104,241.8987 505.16755,241.6479 509.13624,241.6479 C 512.26569,241.6479 515.54614,240.87338 518.01016,239.55274 L 521.91927,237.45758 L 523.72311,239.80274 C 526.04502,242.82142 526.01663,243.22266 523.34892,245.0912 C 520.76738,246.89938 514.46799,247.00712 509.86551,245.32182 z M 488.60235,237.681 C 487.03316,236.00117 484.36574,231.30339 482.67477,227.24149 C 472.24138,202.17938 475.04763,187.39507 491.95496,178.3501 C 495.41095,176.50124 497.59568,176.16071 505.57143,176.22771 C 523.60816,176.37923 525.56039,178.76436 526.53335,201.83787 C 527.03312,213.68979 527.48303,216.89274 528.86211,218.41661 C 531.38791,221.20758 530.97775,223.19239 526.95507,227.64502 C 523.34551,231.64037 521.24723,232.55039 520.06292,230.63414 C 518.43922,228.00693 515.61698,215.3146 516.16817,213.11847 C 516.90501,210.18269 515.75874,209.98256 511.32858,212.27348 C 508.22094,213.88051 508.15299,213.8632 505.37824,210.75771 C 501.88221,206.84497 501.81495,203.705 505.16005,200.57221 L 507.74866,198.1479 L 510.02657,200.99693 C 511.44469,202.7706 513.0154,203.70403 514.18796,203.46993 C 515.74729,203.15862 516.06465,202.20561 516.03205,197.93237 C 515.96273,188.8489 511.26291,186.43394 502.56347,191.01165 C 500.09285,192.31171 496.38373,193.92167 494.32098,194.58935 C 491.65241,195.45311 490.38742,196.53287 489.93576,198.33243 C 488.79624,202.87263 493.06387,217.6479 495.51475,217.6479 C 496.00533,217.6479 497.23128,219.3354 498.23907,221.3979 C 499.24687,223.4604 501.30893,225.73495 502.82143,226.45247 C 508.02909,228.92292 505.87339,233.45708 497.47578,237.69618 L 491.45544,240.73524 L 488.60235,237.681 z M 527.5231,238.80985 C 524.65463,236.4871 525.30946,235.48013 532.36754,231.36018 C 540.0568,226.87182 541.2183,226.51748 542.63728,228.22725 C 543.63759,229.43255 542.82046,230.64256 537.9604,235.1528 C 534.72147,238.15859 531.55878,240.62463 530.93221,240.63289 C 530.30565,240.64114 528.77155,239.82078 527.5231,238.80985 z M 413.5027,232.77582 C 408.17918,229.57069 406.57376,227.94075 404.1821,223.31293 C 401.45643,218.03879 401.383,217.58442 402.88568,215.29105 C 404.42873,212.93606 404.32355,212.66681 399.525,206.68771 C 396.80054,203.29296 394.57143,200.32024 394.57143,200.08167 C 394.57143,198.79203 396.98374,200.13311 401.96951,204.19449 C 409.02863,209.94481 410.1778,211.9441 408.11593,214.88782 C 407.26646,216.10062 406.57143,217.65932 406.57143,218.3516 C 406.57143,219.04388 410.84643,222.82358 416.07143,226.75094 C 421.29643,230.6783 425.57143,234.51176 425.57143,235.26974 C 425.57143,237.84789 420.02261,236.70126 413.5027,232.77582 z M 512.2381,235.98123 C 511.04476,234.78789 511.53551,229.9226 512.96924,228.73271 C 514.07649,227.81378 514.80405,228.12817 516.46924,230.24512 C 519.06403,233.54386 519.08773,234.30122 516.63717,235.61272 C 514.39361,236.81344 513.17259,236.91572 512.2381,235.98123 z M 224.11217,227.71382 C 223.79466,227.20007 224.27758,224.92353 225.18533,222.65484 C 227.70905,216.34744 226.63148,208.01927 221.7018,195.73198 C 217.40271,185.01645 216.70704,181.6234 218.82143,181.68334 C 221.84666,181.7691 230.07989,188.1165 232.73197,192.40766 C 235.25552,196.49085 236.82209,208.12317 235.92917,216.1479 C 235.37763,221.1046 234.69728,222.71302 232.01648,225.3979 C 228.86042,228.55877 225.28231,229.60714 224.11217,227.71382 z M 464.44387,218.9918 C 462.70794,216.89708 462.73859,198.69237 464.48856,192.44782 C 466.15614,186.49729 471.61571,179.3293 476.10184,177.20049 C 483.79853,173.54817 491.90659,174.32592 484.82143,178.0369 C 480.98271,180.0475 476.21301,185.33172 473.43836,190.6479 C 471.39265,194.56745 471.08014,196.61554 471.01559,206.52602 C 470.95096,216.44831 470.70142,218.07968 469.06532,219.27602 C 466.65772,221.0365 466.11047,221.00285 464.44387,218.9918 z M 448.49929,214.79057 C 446.47817,213.15397 446.22758,212.13499 446.39066,206.21629 C 446.80316,191.24474 451.779,177.44887 460.26535,167.74769 C 465.03463,162.29569 475.35746,156.57487 486.73739,153.07713 C 491.54081,151.60075 492.87478,151.53091 495.50011,152.61836 C 497.36658,153.39148 498.84083,154.87308 499.21093,156.3477 C 500.21346,160.34209 498.50473,161.05048 491.3146,159.62131 C 487.78941,158.92062 483.79282,158.6265 482.43328,158.96773 C 474.90182,160.858 465.2598,170.9571 458.61705,183.91297 C 454.6229,191.70306 454.57143,191.94151 454.57143,202.65425 C 454.57143,211.18527 454.23548,213.841 453,215.07647 C 451.05931,217.01716 451.26517,217.03024 448.49929,214.79057 z M 264.12813,203.42539 C 263.27195,202.20302 262.57143,200.35856 262.57143,199.3266 C 262.57143,195.05072 274.13159,187.81872 279.00951,189.043 C 282.79741,189.99371 282.13791,192.28982 277.04609,195.87887 C 274.55715,197.63324 271.64733,200.54896 270.57981,202.35826 C 268.31424,206.19813 266.30322,206.53076 264.12813,203.42539 z M 535.21745,201.19565 C 531.57579,197.82067 531.89383,195.49279 536.57431,191.26426 C 542.79935,185.64032 544.60558,186.76049 540.07143,193.43309 C 538.69643,195.45658 537.57143,197.68271 537.57143,198.38003 C 537.57143,200.57247 540.67456,199.76454 544.22421,196.6479 C 548.16561,193.18731 551.57143,192.68007 551.57143,195.55366 C 551.57143,197.82213 543.27609,203.6479 540.04601,203.6479 C 538.84562,203.6479 536.67277,202.54439 535.21745,201.19565 z M 363.5728,178.88163 C 362.19856,178.64073 358.48446,176.49691 355.31925,174.11758 C 343.74116,165.41417 340.45772,164.38959 321.26864,163.49229 C 311.89108,163.05378 303.79962,162.27609 303.28762,161.76409 C 301.60828,160.08475 305.80667,158.86519 317.79388,157.5503 C 328.49707,156.37626 330.33023,156.43228 339.28334,158.20702 C 351.12737,160.55481 364.55797,160.55199 373.57143,158.19982 C 379.90603,156.54673 385.71252,153.70416 402.04722,144.25948 C 410.68945,139.26256 415.57143,138.29785 415.57143,141.587 C 415.57143,142.81327 413.18275,145.29465 409.07361,148.337 C 397.25122,157.09013 389.19152,161.47913 378.82143,164.81117 C 373.18393,166.62256 368.57143,168.62677 368.57143,169.26497 C 368.57143,171.19819 374.87983,171.76038 379.83586,170.26883 C 384.96274,168.72587 407.04381,157.36254 415.00336,152.17099 C 417.7908,150.35291 425.69643,143.15419 432.57143,136.17385 C 446.80428,121.72291 448.11014,120.75804 450.37287,123.02077 C 451.75401,124.40191 451.76991,124.91076 450.5062,127.28858 C 448.48514,131.09147 419.96099,159.42736 412.37514,165.16798 C 408.9081,167.79168 403.70465,171.03294 400.81191,172.37079 C 393.58784,175.7118 369.5076,179.92197 363.5728,178.88163 z M 290.32143,156.5678 C 289.35893,156.0072 288.57143,154.8766 288.57143,154.05537 C 288.57143,151.59734 297.66896,142.63987 303.05163,139.7981 C 307.84126,137.26942 308.75922,137.14861 323.07143,137.1633 C 331.32143,137.17176 345.06418,137.57581 353.61087,138.06117 C 370.0354,138.99391 372.46415,138.59535 375.37813,134.4892 C 376.97578,132.23794 382.38699,132.00369 383.21066,134.15014 C 384.16099,136.62666 382.69504,140.51138 380.33315,141.77542 C 375.51141,144.35594 370.25318,144.61049 344.52745,143.50879 C 314.14632,142.20772 314.13761,142.20928 303.57143,150.83677 C 295.23706,157.64194 293.4745,158.4043 290.32143,156.5678 z M 538.64212,141.82273 C 535.65601,139.74673 532.32339,136.85689 531.23632,135.40087 C 529.41272,132.95836 529.37145,132.45939 530.70283,128.95073 C 532.7866,123.45925 535.84004,123.29394 538.51029,128.52805 C 539.6342,130.73109 542.58273,134.2296 545.06259,136.30251 C 549.73231,140.2059 550.96891,143.89766 547.98964,145.04091 C 545.29141,146.07632 544.23963,145.71421 538.64212,141.82273 z M 398.2381,137.98123 C 396.79751,136.54065 397.68704,131.62999 399.82143,129.24046 C 402.56554,126.16832 427.25411,107.67227 432.07907,105.07385 C 435.27031,103.35525 435.68566,103.33356 437.16052,104.80842 C 439.54755,107.19544 437.63915,109.89436 430.82733,113.76504 C 427.66159,115.56391 420.02655,121.89846 413.86059,127.84181 C 403.6925,137.64279 400.17962,139.92275 398.2381,137.98123 z"/>
 </g>
</g>
<path transform="translate(-51,37.209248)" fill="#4772FE" d="M 337.3997,472.02544 C 334.70246,470.22444 334.10385,467.12239 335.11851,460.20417 C 336.29149,452.20649 335.79876,446.44153 332.34812,427.79075 C 330.77235,419.27367 329.57598,408.11099 329.10684,397.54821 L 328.36323,380.80568 L 323.43161,373.7612 C 313.24907,359.21611 313.79749,360.86421 314.4569,346.79075 C 314.77903,339.91575 315.46682,329.56575 315.98532,323.79075 C 317.1571,310.73966 316.26007,292.79075 314.43604,292.79075 C 312.83288,292.79075 309.22387,307.84059 308.35111,318.16537 C 307.82535,324.38507 308.13056,327.33436 310.03232,334.41101 C 312.26622,342.72363 312.28581,343.10859 310.53981,344.3853 C 304.19289,349.02628 300.89447,335.5251 302.98414,313.45823 C 304.54069,297.02113 306.24954,289.71394 308.98671,287.79075 C 315.82449,282.98638 315.97623,282.71167 318.10063,271.29075 C 319.22599,265.24075 320.94018,259.16575 321.90995,257.79075 C 325.00892,253.39682 330.17185,238.33079 329.82481,234.69427 C 329.555,231.86702 329.05601,231.23926 326.87775,230.98665 C 323.62614,230.60957 323.32298,231.35221 321.93552,243.09338 C 320.19377,257.83274 320.02886,258.5657 318.30558,259.22698 C 314.94262,260.51747 314.65473,258.1161 316.85062,247.09059 C 319.6112,233.22976 319.61355,229.07275 316.86246,226.14435 C 314.93854,224.09643 314.85394,223.55759 316.01587,220.75244 C 318.5439,214.64922 324.30541,213.29877 336.93344,215.84951 C 343.41121,217.15796 347,219.1626 347,221.47252 C 347,222.37214 344.31824,227.24796 341.04053,232.30767 C 332.73976,245.12137 324.83787,270.20929 323.56514,287.79075 C 323.22671,292.46575 321.80641,306.61931 320.4089,319.24311 C 317.34502,346.91949 317.56818,349.65496 323.58141,358.13212 C 331.67211,369.53799 332.11426,370.80895 333.17328,385.70407 C 333.71011,393.25455 335.27473,404.17776 336.69503,410.29075 C 338.46948,417.92802 339.45342,425.76257 339.91365,435.91876 C 340.54215,449.78811 340.71717,450.73116 343.28826,454.10204 C 346.39996,458.18168 346.55105,459.64189 344.54962,466.29214 C 342.78461,472.15682 340.42734,474.04704 337.3997,472.02544 z M 627.37643,434.15444 C 626.42965,430.38215 627.62268,411.92891 629.53344,400.79075 C 630.4298,395.56575 632.47646,387.41234 634.08159,382.67206 C 637.87151,371.47962 637.78045,367.09261 633.5,354.65123 C 629.29907,342.44098 629.14688,338.40781 632.62788,331.5384 C 635.04478,326.76886 635.20338,325.70781 634.60342,318.32164 C 634.24464,313.90465 633.67952,306.67214 633.3476,302.24939 L 632.74412,294.20804 L 636.87206,289.43857 C 640.62518,285.10218 641,284.17232 641,279.19781 C 641,271.7946 642.72289,268.25347 649.40104,261.93081 C 655.75959,255.91074 657.4564,253.13996 658.45062,247.15337 C 659.97406,237.98021 654.77112,229.33808 645.68967,225.95736 C 642.76098,224.86711 636.36114,223.74173 631,223.37426 C 610.56393,221.97351 609,221.39016 609,215.16829 C 609,212.18636 608.53518,211.49549 605.75,210.33785 C 601.23482,208.46113 586.84454,206.85447 564.63845,205.74777 C 554.26459,205.23077 544.08772,204.35291 542.02317,203.79699 C 538.32294,202.80062 534.1641,198.88747 526.09867,188.81324 C 522.81339,184.70971 522.54065,184.58242 518.10477,185.08241 C 512.66506,185.69554 510.54923,184.75353 508.51035,180.81077 C 504.7515,173.54195 508.09377,170.41575 519.62385,170.41575 C 527.35468,170.41575 529.44881,171.99341 530.93858,178.93998 C 534.70156,196.48613 547.8276,201.79075 587.48177,201.79075 C 609.94296,201.79075 612.50721,202.35607 613.9723,207.63086 C 614.5314,209.6438 614.99136,211.83742 614.99442,212.50557 C 615.00581,214.98617 618.79857,215.71946 628.6208,215.1401 L 638.5,214.55737 L 645.4055,218.18102 C 653.59931,222.4807 660.51545,227.94563 663.0615,232.13227 C 665.60639,236.317 666.42493,244.38959 665.01595,251.40746 C 663.90604,256.93574 663.34194,257.75795 655.66739,265.03325 L 647.5,272.77575 L 647.71768,280.20355 L 647.93535,287.63134 L 644.33294,289.75682 L 640.73052,291.88229 L 641.38519,298.08652 C 643.39648,317.14729 643.32521,318.78827 640.07613,328.22834 C 635.12002,342.62814 636.14613,353.60887 643.11931,360.79425 C 648.71231,366.55746 648.64972,368.20599 642.42662,379.03875 C 636.84125,388.76141 635.1313,395.26909 634.34272,409.80428 C 633.77291,420.30717 633.90601,421.68619 635.85904,425.51444 C 638.6355,430.95676 638.56052,433.19346 635.53518,435.17574 C 631.65256,437.71973 628.16158,437.28274 627.37643,434.15444 z"/>
</svg>