<svg xmlns="http://www.w3.org/2000/svg" version="1" width="898" height="1042"><path fill="#FFF" d="M474.366 854.553c-.421-.45-23.213-.922-50.648-1.049-48.1-.223-50.185-.311-58.371-2.474-4.669-1.234-11.668-3.957-15.553-6.053-3.976-2.144-14.037-5.881-23.011-8.547-57.779-17.162-77.692-25.93-95.447-42.027-36.627-33.206-190.354-187.477-194.348-195.034-1.463-2.769-1.637-4.102-.835-6.403.648-1.859.709-6.449.17-12.745-1.308-15.27 1.323-40.982 6.115-59.751 1.111-4.352 4.206-14.93 6.878-23.506 15.997-51.352 16.843-56.486 19.54-118.593 1.503-34.602 4.407-65.171 9.074-95.5 5.25-34.12 10.361-52.949 19.12-70.446 7.711-15.402 24.121-42.889 31.184-52.233 14.712-19.462 38.916-38.482 85.803-67.426 8.139-5.025 16.149-10.409 17.799-11.964 4.981-4.697 9.902-6.264 15.367-4.893 4.583 1.15 4.938 1.047 32.909-9.462 34.26-12.872 36.48-13.84 47.224-20.576 20.256-12.7 31.959-14.84 63.082-11.537 23.495 2.494 56.388 8.618 73.284 13.643 8.95 2.662 18.339 7.201 23.22 11.225 6.306 5.198 19.778 23.084 25.933 34.43 11.922 21.976 15.274 27.197 30.048 46.799 17.96 23.831 22.334 30.963 26.332 42.939l3.004 9 4.817 1.091c5.892 1.335 7.671 2.266 16.173 8.469 10.816 7.892 14.415 8.787 47.964 11.926 23.816 2.229 32.026 3.7 47.643 8.536 23.307 7.218 35.334 15.059 65.886 42.952 34.844 31.812 64.924 73.818 90.142 125.881 17.649 36.437 23.839 60.24 23.829 91.645-.012 38.994-9.345 68.908-38.165 122.323-13.508 25.036-17.402 31.526-31.9 53.177-11.777 17.586-42.095 60.8-53.024 75.574-8.056 10.891-12.4 19.273-15.765 30.418-1.493 4.946-3.764 11.062-5.046 13.592-3.353 6.616-12.254 14.291-21.811 18.806-12.088 4.725-22.453 11.2-32.018 19.922-12.114 11.366-19.904 16.242-30.456 19.06-12.682 3.387-21.721 4.083-67.144 5.164-23.909.569-46.187 1.419-49.507 1.89-3.867.548-7.83 1.967-11.029 3.95-2.764 1.714-7.895 3.679-11.493 4.403l-6.5 1.308-20.47 2.095z"/><path d="M358.449 1039.621c.651-1.237 9.652-16.425 20.003-33.75 25.584-42.823 39.537-61.3 59.884-79.3 24.294-21.492 39.94-36.113 40.526-37.869.672-2.012-3.407-32.986-4.496-34.149-.421-.45-23.213-.922-50.648-1.049-48.1-.223-50.185-.311-58.371-2.474-4.669-1.234-11.668-3.957-15.553-6.053-3.976-2.144-14.037-5.881-23.011-8.547-57.779-17.162-77.692-25.93-95.447-42.027-36.627-33.206-190.354-187.477-194.348-195.034-1.463-2.769-1.637-4.102-.835-6.403.648-1.859.709-6.449.17-12.745-1.308-15.27 1.323-40.982 6.115-59.751 1.111-4.352 4.206-14.93 6.878-23.506 15.997-51.352 16.843-56.486 19.54-118.593 1.503-34.602 4.407-65.171 9.074-95.5 5.25-34.12 10.361-52.949 19.12-70.446 7.711-15.402 24.121-42.889 31.184-52.233 14.712-19.462 38.916-38.482 85.803-67.426 8.139-5.025 16.149-10.409 17.799-11.964 4.981-4.697 9.902-6.264 15.367-4.893 4.583 1.15 4.938 1.047 32.909-9.462 34.26-12.872 36.48-13.84 47.224-20.576 20.256-12.7 31.959-14.84 63.082-11.537 23.495 2.494 56.388 8.618 73.284 13.643 8.95 2.662 18.339 7.201 23.22 11.225 6.306 5.198 19.778 23.084 25.933 34.43 11.922 21.976 15.274 27.197 30.048 46.799 17.96 23.831 22.334 30.963 26.332 42.939l3.004 9 4.817 1.091c5.892 1.335 7.671 2.266 16.173 8.469 10.816 7.892 14.415 8.787 47.964 11.926 23.816 2.229 32.026 3.7 47.643 8.536 23.307 7.218 35.334 15.059 65.886 42.952 34.844 31.812 64.924 73.818 90.142 125.881 17.649 36.437 23.839 60.24 23.829 91.645-.012 38.994-9.345 68.908-38.165 122.323-13.508 25.036-17.402 31.526-31.9 53.177-11.777 17.586-42.095 60.8-53.024 75.574-8.056 10.891-12.4 19.273-15.765 30.418-1.493 4.946-3.764 11.062-5.046 13.592-3.353 6.616-12.254 14.291-21.811 18.806-4.481 2.117-11.194 5.285-14.919 7.041-4.885 2.303-9.652 5.894-17.098 12.881-12.114 11.366-19.904 16.242-30.456 19.06-12.682 3.387-21.721 4.083-67.144 5.164-23.909.569-46.187 1.419-49.507 1.89-3.867.548-7.83 1.967-11.029 3.95-2.764 1.714-7.895 3.679-11.493 4.403l-6.5 1.308-.243 11.457c-.231 10.875-.103 11.711 2.526 16.457l2.769 5 8.974-.293 8.974-.293 28 16.634c15.4 9.148 28.675 17.217 29.5 17.929.825.713 3.884 2.49 6.797 3.95 5.754 2.883 7.121 4.763 5.172 7.11-1.587 1.913-1.623 1.887 5.488 3.929 8.228 2.363 14.364 5.641 21.212 11.332 3.207 2.666 8.306 6.582 11.331 8.703 4.456 3.124 89.026 76.613 97.977 85.139l2.477 2.36h-41.124l-17.415-19.139c-22.925-25.194-54.274-53.658-83.493-75.81l-22.567-17.109-27.842-12.971c-15.313-7.134-28.331-12.971-28.928-12.971-.597 0-1.086.608-1.086 1.35 0 .743 2.925 31.324 6.5 67.959 3.575 36.635 6.5 67.077 6.5 67.65 0 .666-4.502 1.041-12.5 1.041h-12.5l-.087-8.25c-.352-33.34-3.56-116.135-4.513-116.451-.605-.201-6.905 4.312-14 10.028-9.924 7.996-16.295 14.289-27.62 27.283-12.851 14.746-17.523 21.201-36.793 50.84-12.14 18.672-22.559 34.535-23.152 35.25-.788.949-4.703 1.301-14.492 1.301h-13.413l1.184-2.25zm132.588-203.676c8.307-.799 10.935-1.467 14.153-3.596 2.173-1.438 6.133-3.277 8.798-4.086 6.347-1.926 29.654-3.332 55.847-3.371 25.509-.037 51.379-1.577 61.5-3.659 11.62-2.391 16.707-5.352 29.054-16.912 10.703-10.021 11.855-10.794 27.336-18.336 20.661-10.066 22.075-11.516 27.109-27.774 4.504-14.546 6.793-18.74 20.925-38.34 29.773-41.291 54.836-77.734 64.342-93.558 8.804-14.656 25.414-45.785 31.853-59.699 14.905-32.208 20.363-54.555 20.375-83.421.012-29.865-5.454-50.568-22.924-86.822-12.722-26.4-35.016-62.455-50.103-81.028-22.173-27.296-56.219-58.844-74.429-68.969-7.796-4.335-27.336-11.033-37.826-12.967-4.516-.833-17.886-2.452-29.711-3.598-33.446-3.243-41.115-5.263-52.468-13.819-5.107-3.848-8.847-6.119-10.081-6.119-.374 0-4.143 3.369-8.374 7.487-9.501 9.246-12.516 10.228-17.154 5.59-4.03-4.03-3.532-7.442 2.005-13.732 4.719-5.361 5.445-8.077 4.101-15.344-1.727-9.342-8.337-20.969-22.895-40.272-17.645-23.396-20.332-27.426-29.15-43.728-4.016-7.425-8.663-15.525-10.326-18-6.19-9.213-15.141-19.351-19.579-22.173-10.993-6.991-55.907-16.75-91.549-19.893-20.968-1.849-29.521-.115-44.53 9.028-14.216 8.659-17.165 9.972-49.522 22.045-16.406 6.122-31.471 11.968-33.478 12.992-2.007 1.024-6.473 2.181-9.926 2.571-5.359.606-7.983 1.734-17.926 7.701-33.663 20.204-62.579 41.186-75.673 54.911-10.103 10.59-14.473 16.797-26.973 38.317-11.665 20.082-15.672 28.213-19.423 39.416-8.269 24.696-17.046 87.297-19.078 136.084-2.762 66.301-4.483 77.704-18.495 122.5-12.19 38.973-15.155 56.029-14.207 81.732.319 8.652 1.002 16.486 1.518 17.408 3.374 6.029 169.018 171.615 183.932 183.868l3.25 2.67 3.029-2.549c4.284-3.605 8.104-4.144 28.471-4.016 28.035.176 36.704 2.152 51.054 11.635 13.646 9.019 9.98 9.86-12.027 2.76-20.952-6.76-26.526-7.988-36.027-7.935-9.157.051-29.142 2.234-30.208 3.3-1.38 1.38 5.351 5.747 20.208 13.112 15.626 7.746 28.06 12.231 62.5 22.546 11.57 3.465 23.114 7.585 26.5 9.457 7.022 3.883 14.975 6.35 24.31 7.54 8.619 1.099 98.511.331 111.891-.956zm-76.202-14.144c-10.565-1.142-17.013-2.709-22.54-5.477-5.195-2.602-12.178-9.746-14.705-15.044-1.696-3.557-1.687-3.64.622-5.51 1.289-1.044 3.635-1.898 5.213-1.898 2.326 0 3.244.735 4.85 3.884 2.618 5.132 11.062 11.74 17.44 13.647 2.816.842 12.319 1.998 21.119 2.568 20.724 1.343 34.559.168 47.417-4.027 5.179-1.69 10.194-3.072 11.143-3.072 5.462 0-.03 9.331-7.72 13.117-4.679 2.303-5.673 2.388-29.84 2.53-13.75.081-28.6-.242-33-.718zm140.646-7.502c-9.394-2.527-14.307-7.325-11.541-11.273 2.105-3.005 4.018-2.698 7.736 1.245 2.664 2.825 4.19 3.523 9.025 4.127 9.417 1.177 16.25-.064 24.859-4.513l7.725-3.993 11.775.135c19.447.223 28.396-3.962 37.453-17.516 2.257-3.377 5.249-7.378 6.65-8.89 2.872-3.101 7.182-3.648 9.236-1.173 1.091 1.315.998 2.153-.562 5.05-2.34 4.346-16.392 19.446-22.841 24.546-4.83 3.819-4.86 3.827-14.202 3.827-8.177 0-10.978.513-22.133 4.055-18.616 5.911-32.307 7.298-43.18 4.373zm-44.479-13.095c-1.424-1.424-.557-4.359 1.732-5.859 2.77-1.815 3.892-4.509 5.524-13.263 1.261-6.768 10.005-29.3 15.317-39.47 3.236-6.196 3.259-6.34 3.137-19.741-.165-18.157-2.875-32.308-8.423-43.981-4.327-9.106-4.639-11.559-1.704-13.407 2.895-1.823 4.925.299 9.966 10.419 7.195 14.447 8.045 18.984 7.558 40.356l-.413 18.112-5.58 11.5c-7.032 14.494-11.29 26.575-13.179 37.397-.812 4.653-2.173 9.807-3.024 11.453-2.484 4.803-8.824 8.571-10.911 6.484zm-226.919-34.737c-4.484-1.628-9.555-5.36-15.998-11.773-4.874-4.851-6.162-7.583-3-6.361.962.372 3.922 1.09 6.577 1.596 6.103 1.163 6.304 1.3 8.644 5.887 2.238 4.386 3.514 5.055 9.641 5.055 3.197 0 4.626.461 5.077 1.636 1.674 4.363-4.089 6.449-10.943 3.961zm-19.248-34.991c-1.65-.727-8.724-5.649-15.721-10.939-6.996-5.29-16.446-12.038-21-14.997-11.997-7.796-16.987-12.641-24.248-23.55-7.908-11.878-9.905-16.429-9.177-20.912.561-3.455 2.218-6.208 3.737-6.208.465 0 2.029 3.938 3.476 8.75 1.447 4.813 3.667 10.55 4.934 12.75 4.74 8.232 20.719 21.625 45.835 38.415 12.068 8.068 18.665 13.617 18.665 15.701 0 .761-.188 1.384-.418 1.384-.23 0-1.018.209-1.75.464s-2.682-.131-4.332-.858zm-48.068-13.165c-1.687-.833-8.384-6.11-14.881-11.727s-15.017-12.926-18.932-16.242c-3.916-3.316-8.551-8.158-10.3-10.76-4.82-7.169-5.619-13.086-5.088-37.683.415-19.247.702-22.143 2.707-27.328 1.233-3.19 3.294-7.015 4.579-8.5 2.169-2.508 2.389-2.566 3.07-.813.403 1.039.21 8.464-.431 16.5-3.386 42.497-3.44 44.681-1.245 49.643 2.518 5.692 8.583 11.652 28.208 27.715 15.718 12.865 19.817 17.418 17.643 19.593-1.454 1.454-1.598 1.443-5.329-.398zm73.551-39.457c-1.87-1.87-1.907-2.229-.506-4.939 3.401-6.577 8.04-7.037 10.523-1.043 1.154 2.787 1.057 3.309-1.037 5.538-2.805 2.986-6.267 3.157-8.98.444zm78.06-21.392c-2.363-4.951-4.727-7.918-9.809-12.307-12.448-10.753-21.434-19.757-25.733-25.784-4.73-6.632-22.112-36.755-27.985-48.5-5.622-11.244-11.18-18.474-22.65-29.464-13.826-13.249-15.867-15.902-15.867-20.624 0-4.36 2.243-6.388 5.272-4.767 1.003.537 6.314 7.041 11.802 14.454 5.488 7.413 12.722 16.048 16.076 19.189 5.279 4.945 7.081 7.699 13.435 20.53 9.197 18.572 13.7 24.986 43.203 61.542 15.745 19.509 18.381 23.618 18.003 28.062-.465 5.468-2.4 4.683-5.747-2.332zm163.513-4.904c-1.517-2.589-2.556-5.893-2.556-8.128 0-3.284.768-4.518 5.998-9.636 6.674-6.531 11.049-9.199 14.319-8.733 1.792.255 2.237 1.07 2.49 4.561l.308 4.25h-3.861c-3.044 0-4.527.688-7.007 3.25-4.194 4.333-6.305 9.614-5.595 13.991.847 5.217-1.171 5.436-4.095.445zm-347.118-14.14c-1.68-2.564-1.6-5.612.62-23.546 2.06-16.641 2.853-30.596 1.96-34.5-.563-2.461-1.993-4.844-3.717-6.194-6.139-4.807-7.302-6.273-7.302-9.198 0-1.63.707-3.671 1.571-4.536 6.329-6.329 15.423 7.515 17.57 26.75 1.039 9.304-.26 34.307-2.292 44.115-1.89 9.124-5.238 11.953-8.411 7.109zm286.658-10.196c-4.989-4.27-8.814-5.206-22.096-5.407-5.225-.079-10.625-.454-12-.835-3.876-1.072-3.679-4.306.485-7.962 4.095-3.596 7.634-3.941 21.193-2.066 8.041 1.112 14.751 3.856 20.907 8.551 6.286 4.795 6.699 8.376 1.186 10.298-4.482 1.562-4.995 1.425-9.674-2.58zm-111.17-15.044c-.563-1.482-.89-4.069-.725-5.75.41-4.187 4.66-4.786 8.28-1.166 4.546 4.546 2.857 9.61-3.206 9.61-2.69 0-3.52-.514-4.349-2.694zm110.824-4.878c-5.914-3.208-.753-10.285 5.696-7.81 3.075 1.18 3.674 3.961 1.459 6.775-2.341 2.976-3.317 3.117-7.155 1.035zm170.857-6.01c-1.529-3.985-.523-17.033 1.806-23.418 9.033-24.763 17.306-45.884 21.558-55.034 3.382-7.278 5.326-13.048 6.091-18.078 2.388-15.707 12.927-35.987 33.98-65.388 14.978-20.917 20.958-33.605 20.958-44.468 0-4.698.442-6.474 2-8.032 2.531-2.531 3.447-2.51 5.911.135 2.554 2.742 3.454 6.94 2.645 12.338-.994 6.627-11.716 27.299-22.066 42.541-10.825 15.942-25.364 40.366-30.053 50.486-1.784 3.85-3.996 11.05-4.915 16-1.032 5.553-2.761 10.915-4.516 14-1.564 2.75-5.522 10.85-8.795 18-3.273 7.15-8.593 18.4-11.822 25l-5.871 12 .24 10.116c.212 8.933-.003 10.424-1.832 12.75-2.343 2.978-4.422 3.39-5.32 1.052zm-556.919-1.789c-.3-.782 1.426-3.253 4.017-5.75 2.499-2.408 6.556-7.079 9.015-10.379 2.459-3.3 8.889-9.6 14.289-14 5.399-4.4 11.667-10.363 13.927-13.25 2.261-2.888 4.579-5.25 5.153-5.25 2.394 0 4.911 2.224 4.911 4.339 0 2.796-3.57 6.186-16.5 15.666-5.5 4.032-15.039 12.431-21.197 18.663-6.158 6.232-11.623 11.332-12.143 11.332-.52 0-1.183-.617-1.472-1.371zm520.301-30.879c-1.09-1.788-1.983-4.049-1.985-5.025-.006-2.671 4.706-4.115 9.128-2.798 6.672 1.987 7.529 6.07 1.966 9.356-4.376 2.585-6.851 2.169-9.108-1.534zm-531.28-15.374c-1.222-1.222-.776-5.345.939-8.675 3.054-5.931 6.316-9.363 11.597-12.204 12.13-6.525 15.639-9.322 18.861-15.031 3.862-6.843 6.674-8.892 10.92-7.959 6.236 1.37 5.17 4.65-5.152 15.852-4.373 4.746-7.803 7.578-9.616 7.941-4.663.933-17.847 11.225-20.462 15.975-2.183 3.964-5.377 5.813-7.088 4.102zm620.848-2.598c-.882-1.259-1.557-4.294-1.557-7 0-4.547.133-4.777 2.75-4.771 4.959.012 12.105 6.323 10.853 9.585-.597 1.555-6.432 4.408-9.014 4.408-.811 0-2.176-1-3.032-2.223zm-281.906-8.246c-1.359-3.543-.698-8.435 1.284-9.496 3.706-1.983 8.752-1.249 10.993 1.6 1.14 1.449 2.073 3.179 2.073 3.845 0 2.396-4.058 4.819-8.84 5.279-3.923.377-4.985.14-5.51-1.228zm-120.65-6.531c-2.465-2.465-2.465-2.724-.011-6.75 2.322-3.809 5.226-4.209 7.454-1.027 2.136 3.049 1.962 4.463-.898 7.323-2.976 2.976-3.956 3.044-6.545.455zm-207.333-22.667c-1.555-1.555-.443-4.402 2.638-6.752 4.113-3.137 12.383-6.858 13.992-6.295 1.3.455-4.226 6.051-10.697 10.833-4.092 3.024-4.844 3.304-5.933 2.215zm346.998-2.588c-2.846-2.084-1.866-6.896 1.757-8.625 3.389-1.617 5.292-.809 7.579 3.219 1.135 1.999 1.232 3.071.399 4.401-1.376 2.198-7.273 2.806-9.735 1.004zm103.558-2.302c-1.222-.856-2.223-2.476-2.223-3.599 0-2.715 5.604-7.845 8.571-7.845 4.8 0 6.046 7.583 1.795 10.927-3.149 2.477-5.161 2.604-8.143.516zm-369.166-12.099c-2.433-3.093-2.332-4.145 2.048-21.298 4.318-16.91 8.038-23.191 9.394-15.861.857 4.635-1.134 27.305-2.919 33.225-2.16 7.165-4.964 8.459-8.523 3.934zm481.502-17.678c-1.607-1.175-1.681-1.767-.619-4.984 1.281-3.881 5.237-7.682 7.995-7.682 2.746 0 4.065 2.156 4.065 6.643 0 3.251-.52 4.607-2.223 5.8-2.725 1.909-6.779 2.007-9.219.223zm186.584-1.213c-3.11-3.954-7.39-24.565-5.361-25.819 1.303-.805 7.047 5.709 8.86 10.048 2.092 5.007 2.907 14.951 1.377 16.795-1.739 2.095-2.557 1.923-4.876-1.025zm-677.904-6.615c-1.56-1.56-1.626-12.413-.112-18.427 1.267-5.03 6.746-10.411 10.601-10.411 3.019 0 2.878 1.481-.914 9.583-2.115 4.519-3.375 9.011-3.75 13.362-.48 5.579-.864 6.597-2.576 6.843-1.106.159-2.569-.269-3.25-.95zm213.01-.935c-5.306-1.569-26.981-11.499-32.922-15.082-9.462-5.707-20.485-17.821-16.218-17.821.609 0 9.047 4.673 18.75 10.385 29.089 17.124 31.021 17.865 36.63 14.058 3.154-2.14 4.669-2.487 9.768-2.238 11.392.557 9.987 6.215-2.257 9.091-3.575.84-7.4 1.761-8.5 2.048-1.1.286-3.463.088-5.252-.441zm-244.139-12.653c-3.464-6.822-6.25-9.565-15.628-15.39-10.715-6.655-12.025-7.715-10.911-8.829 1.094-1.094 12.826 1.434 22.883 4.931 6.998 2.433 10.056 5.019 11.651 9.851 1.077 3.263.977 3.653-1.374 5.366-2.187 1.593-2.462 2.395-2.001 5.834.776 5.785-1.163 5.045-4.62-1.763zm525.065-17.564c-3.021-3.216-2.739-5.921.838-8.034 3.4-2.008 6.272-1.534 9.699 1.601 2.679 2.451 1.755 4.938-2.691 7.237-3.957 2.046-5.297 1.909-7.846-.804zm-363.151-6.194c-3.012-2.438-5.72-5.126-6.017-5.974-.297-.848-2.108-2.323-4.023-3.279-1.959-.977-6.437-5.429-10.233-10.173-9.504-11.877-9.072-14.54 1.084-6.68 3.116 2.411 6.685 4.906 7.931 5.543 1.44.737 2.694 2.761 3.441 5.555.833 3.116 1.802 4.553 3.326 4.936 1.183.297 4.134 3.261 6.559 6.586 6.988 9.585 6.495 10.417-2.068 3.486zm152.586-.03c-4.34-.82-15.815-4.238-25.5-7.595-9.685-3.357-25.485-8.537-35.11-11.509-26.536-8.196-44.513-14.281-46.51-15.74-2.635-1.927-.992-3.659 2.799-2.95 6.269 1.173 42.528 12.374 63.711 19.682 23.432 8.084 35.601 11.22 39.625 10.21 2.229-.56 2.498-1.027 1.922-3.354-1.605-6.493-1.69-7.998-.492-8.738 1.582-.978 3.944 2.128 3.944 5.187 0 7.864 20.549 12.015 35.004 7.072 3.577-1.223 14.175-6.363 23.55-11.421 11.242-6.065 20.012-10.056 25.757-11.721 11.057-3.204 11.484-3.447 20.094-11.43 5.389-4.996 8.545-7.087 12.659-8.383 3.614-1.139 7.686-3.603 11.958-7.234 7.626-6.482 9.438-6.972 8.457-2.285-.841 4.02-1.046 4.212-11.479 10.732-4.675 2.922-11.603 7.793-15.395 10.826-10.867 8.69-16.828 11.835-26.766 14.123-6.746 1.553-13.608 4.351-27.181 11.084-26.857 13.322-42.951 16.867-61.048 13.447zm-311.11-1.85c-1.65-.721-4.35-2.442-6-3.824-4.421-3.705-9.781-6.145-21.298-9.698-11.251-3.471-13.088-5.143-9.153-8.329 1.671-1.353 3.512-1.821 6.167-1.568 2.082.199 3.785-.02 3.785-.486 0-.466-1.853-3.044-4.118-5.73-4.81-5.705-5.763-10.419-3.909-19.348 1.656-7.978 3.831-7.376 6.12 1.693 2.356 9.334 3.525 12.013 9.025 20.68 7.202 11.348 10.295 13.929 17.986 15.008 5.263.738 6.882 1.439 9.145 3.96 6.052 6.741 1.182 11.545-7.75 7.643zm111.976-7.088c-12.79-6.667-25.164-17.153-29.005-24.581-2.832-5.476-2.071-13.983 2.413-26.969 7.015-20.317 9.295-24.435 15.239-27.529 5.076-2.641 5.129.708.254 15.824-1.992 6.177-5.142 14.258-7 17.957-2.502 4.982-3.377 8.033-3.377 11.772 0 4.535.424 5.508 4.182 9.585 2.3 2.495 7.813 7.056 12.25 10.134 9.168 6.361 15.568 12.096 15.568 13.952 0 .694-.869 1.727-1.931 2.295-1.529.819-3.316.311-8.593-2.439zm300.629-9.438c-2.093-1.325-.57-3.993 3.171-5.556 1.817-.759 9.772-2.36 17.679-3.558 7.907-1.198 16.158-2.806 18.337-3.575 6.383-2.252 7.709-1.916 7.709 1.953v3.35l-12.37 2.674c-14.594 3.155-28.326 5.629-31.13 5.609-1.1-.008-2.628-.412-3.396-.898zm-235.604-11.475c-16.408-5.921-17.018-6.189-22.326-9.789-7.104-4.819-16.572-12.809-17.513-14.779-.462-.966-2.351-2.478-4.199-3.359-2.735-1.304-3.649-2.574-4.911-6.824-2.021-6.804-2.043-11.859-.054-11.859 2.249 0 9.503 6.959 9.503 9.116 0 1.036.47 1.884 1.045 1.884s5.85 4.992 11.724 11.094c5.873 6.102 12.321 11.932 14.328 12.956 2.007 1.024 9.219 3.507 16.026 5.517 15.074 4.452 16.086 4.952 15.688 7.751-.515 3.616-5.872 3.143-19.311-1.707zm287.133-3.235l-1.867-2.562 3.956-4.157c6.4-6.724 20.718-23.827 23.573-28.157 1.451-2.2 4.462-8.485 6.692-13.967 4.348-10.689 7.997-15.533 11.7-15.533 3.147 0 3.002 2.212-.772 11.724-6.973 17.58-15.987 31.797-28.94 45.643-5.174 5.531-10.552 9.772-12.176 9.601-.165-.017-1.14-1.184-2.167-2.593zm24.034 1.958c-.367-.367-.667-1.218-.667-1.892 0-1.816 8.823-11.299 12.08-12.983 3.889-2.011 7.92-1.907 7.92.204 0 2.279-5.671 10.933-8.751 13.357-2.434 1.914-9.148 2.748-10.582 1.314zm-220.012-4.162c-1.889-2.088-2.227-9.69-.672-15.113.541-1.886 2.36-4.849 4.043-6.585 2.639-2.723 2.856-3.326 1.577-4.387-.815-.677-2.742-1.085-4.282-.908-2.266.261-3.598 1.652-6.99 7.301-4.22 7.029-6.911 9.28-9.777 8.181-2.847-1.092-1.613-3.774 4.507-9.801 7.268-7.156 7.458-9.226.885-9.655-4.021-.263-4.858.066-7.387 2.905l-2.853 3.201-22.104-.646c-12.157-.355-25.929-1.109-30.604-1.675-4.675-.566-13.931-1.431-20.569-1.92-14.031-1.035-18.19-2.482-24.431-8.499-5.672-5.469-8.172-6.76-14.882-7.688-2.96-.41-5.856-1.219-6.436-1.799-1.353-1.353 1.844-18.961 4.002-22.042.926-1.322 2.341-2.036 3.662-1.848 3.049.435 3.499 5.732.702 8.263-2.583 2.338-2.606 3.544-.068 3.544 1.313 0 2.233.927 2.73 2.75.722 2.652.767 2.611 1.269-1.132.496-3.702.906-4.085 8.87-8.28 9.264-4.88 16.915-9.87 28.15-18.359 4.125-3.117 13.575-9.749 21-14.738 7.425-4.989 14.774-10.409 16.33-12.044 3.124-3.282 4.61-8.22 4.646-15.446.022-4.356.225-4.75 2.452-4.75 2.971 0 4.995-1.929 7.717-7.354 2.209-4.402 5.658-8.646 7.029-8.646 2.073 0 .272 5-6.674 18.533-8.133 15.844-9.233 20.469-5.363 22.541 3.012 1.612 8.449.48 12.487-2.6 3.042-2.321 3.367-3.004 2.818-5.932-.514-2.737-.116-3.874 2.298-6.576 2.415-2.703 3.386-3.15 5.624-2.588 1.487.373 3.206 1.78 3.82 3.126.94 2.063.72 3.045-1.399 6.246-1.383 2.089-5.067 5.768-8.187 8.175-4.466 3.446-6.719 4.477-10.595 4.849-4.238.407-5.355.109-8.039-2.15-1.715-1.443-3.877-2.623-4.806-2.623-4.134 0-17.912 9.769-48.658 34.502-8.25 6.636-16.061 12.802-17.358 13.702-4.96 3.44.278 4.97 7.858 2.296 6.317-2.229 8.982-1.867 14.724 2 6.749 4.545 8.459 4.481 10.612-.399 1.157-2.622 2.884-4.452 5.274-5.585 4.635-2.199 5.276-1.356 1.964 2.58-3.842 4.566-3.157 7.316 1.927 7.729 2.2.178 4.36.966 4.8 1.75.95 1.693 2.878 1.782 7.971.367 2.722-.756 4.464-2.145 6.263-4.994 1.37-2.171 2.994-3.947 3.608-3.947.614 0 2.831 1.55 4.928 3.443 4.755 4.296 10.623 5.697 12.591 3.007.737-1.008 1.34-3.096 1.34-4.641 0-3.031 3.377-7.185 5.313-6.534.708.238 1.231 2.65 1.296 5.974.152 7.803.687 8.752 4.925 8.752 5.878 0 7.466-1.404 7.466-6.601 0-5.043 1.37-8.399 3.428-8.399 1.841 0 2.572 2.254 2.572 7.927 0 8.879 6.884 11.073 8 2.549.654-4.997 2.281-5.376 4.899-1.14 2.648 4.285 6.83 6.121 11.835 5.198 2.072-.382 10.292-2.886 18.267-5.565 11.997-4.029 16.274-4.99 24.781-5.565 5.654-.382 10.521-1.085 10.816-1.561.534-.864-1.768-3.354-8.978-9.709-3.41-3.006-3.656-3.526-2.303-4.88 2.39-2.39 6.318-.747 12.652 5.296 6.014 5.736 8.549 6.537 13.524 4.271 3.98-1.813 2.644-3.996-4.662-7.615-7.489-3.709-8.663-5.373-5.807-8.23 3.045-3.045 6.401-2.397 13.085 2.523 6.806 5.01 11.097 5.775 14.941 2.662 2.868-2.323 2.002-3.753-2.787-4.602-8.436-1.495-9.491-3.506-4.184-7.971 3.548-2.986 4.704-3.125 9.449-1.143 3.215 1.343 3.536 1.308 4.503-.5 1.394-2.605 2.683-2.471 10.131 1.053 7.363 3.483 11.649 3.724 17.666.994 3.078-1.397 4.231-2.472 3.997-3.728-.181-.971-4.153-4.282-8.826-7.359-5.629-3.706-8.497-6.224-8.497-7.46 0-2.676 6.094-6.446 10.421-6.446 3.814 0 15.868 6.313 16.836 8.817 1.097 2.839-1.435 3.377-7.668 1.628-3.379-.948-6.382-1.485-6.673-1.193-.292.292.948 1.583 2.755 2.87 2.449 1.744 4.945 2.425 9.808 2.675 6.059.312 6.931.077 12.272-3.307 6.954-4.405 7.545-6.896 2-8.436-2.063-.573-5.025-1.044-6.583-1.047-3.724-.007-3.017-2.187 1.092-3.365 2.535-.727 3.959-.41 7.798 1.735 5.354 2.992 9.017 3.312 12.221 1.068 4.357-3.052 2.956-4.237-10.601-8.975-1.889-.66-1.003-3.878 1.184-4.299 1.01-.195 4.437.813 7.614 2.239 8.782 3.941 11.153 3.557 21.026-3.408 4.675-3.298 8.786-5.997 9.136-5.998.9-.003 3.77 6.277 4.471 9.785.324 1.621.045 5.594-.621 8.83-1.053 5.12-1.953 6.628-6.938 11.633-8.81 8.843-10.738 6.778-3.359-3.598 1.896-2.666 3.196-5.099 2.889-5.406-1-1-8.931 3.142-15.579 8.137-3.575 2.686-6.725 5.161-7 5.501-.275.339-3.762 2.758-7.75 5.375-4.578 3.005-7.25 5.425-7.25 6.569 0 3.247 2.969 11.903 4.526 13.195 2.046 1.698 8.631-1.231 12.139-5.4 2.248-2.672 2.464-3.594 1.875-8.031-.646-4.87-.611-4.964 1.226-3.301 2.326 2.105 3.619 2.157 5.234.212 2.216-2.67 3-1.611 3 4.05 0 6.093-1.449 9.679-5.405 13.375-1.427 1.333-2.595 3.4-2.595 4.592 0 1.952-6.782 8.838-15.115 15.346-6.594 5.15-16.852 8.401-30.385 9.629-19.147 1.738-21.485 3.399-16.002 11.37 5.448 7.919 6.544 17.139 2.038 17.139-2.552 0-4.235-2.789-6.965-11.546-1.638-5.253-3.7-9.674-5.223-11.197-2.211-2.211-3.105-2.447-7.364-1.942-5.683.673-12.984 4.119-12.984 6.128 0 .771 2.544 3.575 5.654 6.23 7.475 6.382 10.831 14.437 6.679 16.03-1.216.467-4.009-1.839-10.329-8.531-7.811-8.27-9.017-9.171-12.274-9.171-7.129 0-6.082 2.821 3.541 9.538 7.703 5.378 9.676 8.462 5.413 8.462-1.364 0-5.302-2.094-8.823-4.692-14.466-10.671-17.616-11.217-36.482-6.319-12.797 3.323-14.288 3.243-25.098-1.348-7.836-3.328-9.504-3.307-13.394.169-3.28 2.93-4.697 7.875-4.826 16.832-.041 2.815-.567 4.338-1.641 4.75-2.082.799-1.873.867-3.763-1.222zm41.327-29.65c.875-1.054.965-2.561.314-5.25l-.913-3.772-6.441.307c-7.14.341-7.514.534-8.464 4.385-.622 2.52-.355 2.787 4.179 4.18 6.297 1.934 9.806 1.98 11.326.149zm10.983-2.456c1.336-2.497 1.335-7.762-.002-8.588-.57-.352-2.82-.339-5 .029-4.594.776-4.957 2.151-1.882 7.126 2.327 3.765 5.304 4.385 6.883 1.434zm23.281-4.714c11.602-2.817 13.754-4.056 13.754-7.923 0-3.029-.627-3.043-16.389-.388-13.488 2.272-15.613 2.786-15.607 3.777.01 1.882 4.181 7.183 5.651 7.183.926 0 6.592-1.192 12.592-2.649zm34.761-10.855c2.492-1.289 3.053-2.149 2.804-4.303-.383-3.318-1.809-3.306-11.114.094-8.23 3.007-8.75 3.459-6.195 5.378 2.432 1.827 9.872 1.228 14.506-1.169zm13.468-3.656c2.384-1.875 2.676-2.675 2.219-6.083-.289-2.158-.781-4.178-1.092-4.489-1.028-1.028-9.602 4.19-9.602 5.845 0 1.771 3.668 6.887 4.938 6.887.436 0 2.028-.972 3.538-2.159zm25.275-2.442c1.238-.795 2.25-2.062 2.25-2.815 0-2.167-9.265-15.584-10.761-15.584-2.085 0-13.239 7.909-13.239 9.387 0 2.091 5.866 9.617 8.29 10.636 2.82 1.185 10.535.254 13.46-1.624zm14.368-7.281c2.95-2.95 3.882-4.679 3.882-7.201 0-3.832-5.52-13.629-8.15-14.464-1.973-.626-11.697 3.984-12.429 5.893-.593 1.546 5.719 15.652 8.044 17.977 2.533 2.533 4.388 2.06 8.652-2.205zm25.882 30.508c0-3.161 3.995-9.583 9.195-14.783 7.857-7.857 15.459-19.197 24.864-37.092 6.392-12.162 8.941-15.824 8.941-12.847 0 2.187-7.475 22.091-10.711 28.521-5.894 11.711-26.527 36.576-30.35 36.576-1.066 0-1.938-.168-1.938-.374zm-164.336-25.802c-1.44-1.278-6.453-9.638-11.141-18.578-7.308-13.937-8.523-16.95-8.523-21.128 0-4.886 1.588-7.629 3.652-6.311 1.541.984 5.639 9.373 10.332 21.155 2.219 5.569 5.641 13.316 7.605 17.216 3.107 6.17 3.384 7.278 2.132 8.53-1.252 1.252-1.779 1.137-4.057-.884zm240.003.51c-.367-.367-.667-2.995-.667-5.841 0-4.046.895-6.981 4.103-13.458 4.62-9.328 7.346-21.637 6.501-29.361-.662-6.053-4.322-14.129-9.993-22.05-6.077-8.487-12.524-15.623-14.116-15.623-2.132 0-12.471 10.959-18.961 20.099-13.783 19.408-29.499 40.628-31.036 41.903-1.401 1.163-1.788 1.153-2.559-.066-1.254-1.982-1.164-6.627.178-9.251.615-1.201 4.403-5.334 8.418-9.184 6.706-6.43 7.395-7.472 8.463-12.795 1.289-6.428.615-12.643-1.866-17.205-.897-1.65-1.632-4.125-1.632-5.5 0-2.121-.47-2.505-3.098-2.535-3.504-.04-8.772-3.056-7.875-4.508.325-.526 6.302-.963 13.282-.971 13.615-.016 17.47-1.007 17.993-4.628.381-2.638-4.479-6.878-9.583-8.361-3.161-.918-44.198-2.754-58.219-2.605-2.475.026-10.012-.051-16.75-.172-9.991-.179-12.25-.49-12.25-1.685 0-.806.905-1.949 2.012-2.542 3.205-1.716 35.718-3.248 56.988-2.686 21.253.562 26.944 1.607 34.604 6.355 2.517 1.56 6.223 3.836 8.236 5.057 2.013 1.221 5.685 2.491 8.16 2.822 7.327.981 9.637 2.33 16.565 9.674 11.442 12.129 16.189 21.466 18.43 36.252 1.516 10.004.749 15.83-3.422 25.988-1.817 4.424-3.869 9.844-4.56 12.044-1.439 4.582-5.067 11.5-6.031 11.5-.357 0-.949-.3-1.316-.667zm-391-17c-1.586-1.586-.415-4.727 2.833-7.603 4.159-3.682 4.3-4.476 1.019-5.723-3.905-1.485-2.078-3.662 3.639-4.34 2.776-.329 6.981-1.732 9.346-3.118 6.254-3.665 13.09-13.55 9.371-13.55-.618 0-4.675 1.603-9.015 3.563-4.927 2.225-8.636 3.326-9.876 2.933-3.893-1.236-1.821-4.02 3.515-4.722 7.736-1.018 11.019-3.208 17.89-11.936 5.514-7.004 6.807-9.408 8.086-15.035 3.444-15.141.815-16.073-5.921-2.099-1.802 3.738-4.291 7.696-5.531 8.796-1.24 1.1-2.623 2.964-3.074 4.142-1.011 2.642-9.516 6.193-11.082 4.626-1.27-1.27.497-4.904 7.279-14.973 2.669-3.963 4.853-7.685 4.853-8.271 0-.587-1.125-1.579-2.5-2.206s-2.5-1.483-2.5-1.903c0-.42 1.871-2.545 4.158-4.72 3.689-3.51 4.209-4.575 4.612-9.437.557-6.714-1.6-11.874-6.127-14.66-4.349-2.675-18.25-8.097-20.762-8.097-1.136 0-3.21.9-4.609 2-1.398 1.1-3.282 2-4.185 2-2.881 0-6.088 2.98-6.088 5.657 0 2.446 2.96 5.862 9.395 10.843 2.283 1.767 2.629 2.86 2.968 9.379.255 4.9-.066 8.246-.955 9.96-1.155 2.226-1.115 2.828.287 4.378 1.497 1.654 3.228 4.337 4.888 7.576 1.872 3.653-5.832 3.344-13.746-.552-7.109-3.5-17.512-13.093-18.51-17.068-.712-2.838 1.232-18.766 3.317-27.173 1.797-7.246 6.639-11.653 18.135-16.506 12.582-5.311 15.318-5.128 28.055 1.876 5.684 3.126 11.309 5.784 12.5 5.907 1.874.193 2.152-.258 2.066-3.357-.153-5.516-4.715-14.522-8.584-16.945-2.967-1.859-4.589-2.046-15.377-1.776-11.44.286-12.225.441-15.277 3.01-4.856 4.087-8.443 2.021-3.913-2.254 4.421-4.173 7.96-5.274 18.5-5.751 9.456-.429 12.479-1.41 8.75-2.841-1.974-.758-1.936-3.362.05-3.362 2.842 0 6.896 2.793 12.595 8.674 7.402 7.64 8.624 10.326 9.9 21.767.926 8.303.86 9.798-.487 11.146-1.977 1.977-1.958 2.607.378 12.388 1.064 4.456 2.5 12.418 3.19 17.693l1.255 9.592-2.9 5.36c-2.342 4.33-2.655 5.602-1.629 6.62 1.822 1.806 8.283-5.346 10.636-11.775 5.641-15.411 5.934-15.966 8.409-15.966 1.312 0 2.858.749 3.435 1.664 1.504 2.384-1.158 7.789-11.628 23.607-9.124 13.784-18.446 24.064-30.2 33.301-4.353 3.421-6.503 5.812-6.503 7.231 0 1.291-2.222 4.188-5.682 7.409-5.485 5.104-7.234 6.039-8.651 4.622zm160.519-5.609c-1.432-1.725-1.976-7.063-.787-7.724 1.217-.677 3.852 7.149 2.771 8.23-.473.473-1.359.248-1.984-.506zm-308.125-4.663c-1.134-1.134-2.061-2.496-2.061-3.027 0-2.371 7.221-8.748 18.266-16.131 13.174-8.806 16.026-9.544 16.538-4.279.416 4.275-1.667 6.003-8.228 6.823-6.641.83-8.155 1.997-14.321 11.04-2.62 3.843-5.522 7.133-6.448 7.311-.926.178-2.612-.603-3.745-1.737zm122.307-.554c-8.108-1.763-11.43-3.593-15.808-8.708-4.824-5.636-4.522-8.3.939-8.3 3.878 0 4.095.184 7.102 6 3.918 7.579 5.361 8.125 18.073 6.841 11.21-1.132 12.549-.908 12.128 2.03-.512 3.575-11.158 4.589-22.434 2.137zm129.31-13.257c-.242-.412-.219-2.2.051-3.973.821-5.395 7.557-10.532 11.717-8.936 2.539.974 4.762 6.403 3.55 8.668-1.436 2.684-3.61 2.508-5.548-.449-1.978-3.019-3.476-2.519-5.891 1.965-1.833 3.405-2.999 4.224-3.878 2.725zm-115.541-4.619c-5.023-1.818-10.613-6.959-16.17-14.872-5.033-7.167-6.199-11.349-3.459-12.4 2.475-.95 6.297 2.332 10.261 8.81 6.849 11.193 10.537 14.44 17.294 15.227 3.537.412 5.473 1.928 4.491 3.517-.881 1.425-8.155 1.26-12.417-.282zm150.067-7.301c-3.847-1.171-5.212-2.052-4.989-3.221.24-1.255 2.26-1.795 9.191-2.454 9.356-.89 13.595-.02 13.595 2.788 0 3.703-9.858 5.302-17.796 2.887zm-148.93-6.024c-6.223-3.212-10.153-9.026-7.296-10.792.538-.332 4.25 1.579 8.25 4.247 6.642 4.431 7.619 4.791 11.272 4.153 2.2-.384 4.337-.495 4.75-.247 1.395.839.761 3.195-1 3.718-3.378 1.003-13.231.338-15.976-1.08zm152.226-2.923c-6.792-2.57-7.174-2.602-10.513-.876-3.076 1.591-3.343 1.582-5.093-.167-1.015-1.015-2.136-3.298-2.491-5.072-.557-2.783-.161-3.709 2.881-6.752 4.132-4.132 5.578-3.884 8.589 1.473 2.745 4.884 5.621 5.961 8.427 3.154 1.939-1.939 1.997-2.513.939-9.35-1.33-8.591-3.538-11.203-8.657-10.243-3.994.749-7.676-2.529-5.621-5.005 1.682-2.027 7.088-2.915 12.662-2.079 3.979.597 5.756 1.77 12.967 8.562 6.111 5.756 9.371 8.086 12.132 8.671 9.838 2.085 48.584-.779 66.44-4.911 8.139-1.884 12.414-2.167 33.336-2.214 20.571-.046 50.046 1.696 51.433 3.04 1.8 1.743-5.51 2.474-33.465 3.348-27.144.848-34.383 1.411-47.969 3.725-14.969 2.551-17.972 2.729-46.62 2.77l-30.62.043-3.802-2.703c-2.091-1.487-4.14-2.494-4.552-2.239-.413.255-.503 3.731-.201 7.725.415 5.485.212 7.532-.828 8.367-2.538 2.038-5.348 2.257-9.377.732zm-31.833-17.049c-1.491-1.491-.491-3.199 2.483-4.236 4.176-1.456 5.851-1.385 5.851.247 0 3.064-6.261 6.06-8.333 3.988zm-176.149-7.304c-.796-1.289 2.06-6.83 5.346-10.369 3.873-4.172 7.926-5.934 13.842-6.02 6.018-.087 7.817 1.139 6.919 4.716-1.032 4.114-3.334 5.643-8.493 5.643-3.68 0-5.931.768-10.179 3.474-5.954 3.793-6.545 3.996-7.436 2.555zm76.682-8.229c-1.867-1.867-1.416-7.715.882-11.432 2.54-4.109 5.959-4.481 8.303-.903 2.573 3.926 2.01 6.981-1.92 10.432-3.823 3.356-5.399 3.769-7.265 1.904zm188.076.179c-17.822-1.036-24.827-2.439-27.996-5.609-5.612-5.612.101-6.705 12.386-2.368 6.184 2.183 12.189 3.438 20.013 4.183 13.888 1.322 19.771.585 21.956-2.749 2.643-4.034 11.306-2.972 9.974 1.223-1.66 5.232-11.947 6.738-36.333 5.321zm1.018-9.305c-1.763-.646-3.766-1.736-4.45-2.424-.994-.999-.248-1.25 3.721-1.25 3.129 0 6.41-.775 8.874-2.095l3.909-2.095 1.804 2.345c2.322 3.019 2.294 3.42-.374 5.288-2.582 1.808-8.881 1.916-13.483.231zm-21.263-7.641c-1.569-1.68-4.237-6.378-5.928-10.44-10.433-25.062-7.627-39.846 9.28-48.891 3.456-1.849 5.641-2.189 13.616-2.122 18.037.152 19.989 2.537 20.962 25.61.5 11.852.95 15.055 2.329 16.579 2.526 2.791 2.116 4.776-1.907 9.228-3.61 3.995-5.708 4.905-6.892 2.989-1.624-2.627-4.446-15.32-3.895-17.516.737-2.936-.409-3.136-4.84-.845-3.108 1.607-3.176 1.59-5.95-1.516-3.496-3.913-3.563-7.053-.218-10.185l2.589-2.424 2.278 2.849c1.418 1.774 2.989 2.707 4.161 2.473 1.559-.311 1.877-1.264 1.844-5.538-.069-9.083-4.769-11.498-13.469-6.921-2.471 1.3-6.18 2.91-8.242 3.578-2.669.864-3.934 1.944-4.385 3.743-1.14 4.54 3.128 19.315 5.579 19.315.491 0 1.717 1.688 2.724 3.75 1.008 2.063 3.07 4.337 4.582 5.055 5.208 2.47 3.052 7.005-5.346 11.244l-6.02 3.039-2.853-3.054zm38.921 1.129c-2.868-2.323-2.214-3.33 4.844-7.45 7.689-4.488 8.851-4.843 10.27-3.133 1 1.205.183 2.415-4.677 6.926-3.239 3.006-6.402 5.472-7.028 5.48-.627.008-2.161-.812-3.409-1.823zm-114.02-6.034c-5.324-3.205-6.929-4.835-9.321-9.463-2.726-5.274-2.799-5.729-1.296-8.022 1.543-2.355 1.438-2.624-3.361-8.603-2.724-3.395-4.954-6.367-4.954-6.606 0-1.29 2.412.051 7.398 4.113 7.059 5.75 8.208 7.75 6.146 10.693-.849 1.213-1.544 2.772-1.544 3.464 0 .692 4.275 4.472 9.5 8.399 5.225 3.927 9.5 7.761 9.5 8.519 0 2.578-5.549 1.432-12.069-2.494zm98.735 3.205c-1.193-1.193-.703-6.059.731-7.249 1.107-.919 1.835-.605 3.5 1.512 2.595 3.299 2.618 4.056.168 5.368-2.244 1.201-3.465 1.303-4.399.369zm-288.126-8.267c-.318-.514.165-2.79 1.073-5.059 2.524-6.307 1.446-14.636-3.484-26.923-4.299-10.716-4.995-14.109-2.88-14.049 3.025.086 11.258 6.433 13.911 10.724 2.524 4.083 4.09 15.716 3.197 23.74-.552 4.957-1.232 6.565-3.913 9.25-3.156 3.161-6.734 4.209-7.904 2.316zm240.332-8.722c-1.736-2.095-1.705-20.299.045-26.544 1.668-5.951 7.127-13.119 11.613-15.247 7.697-3.652 15.805-2.875 8.72.836-3.839 2.011-8.608 7.295-11.383 12.611-2.046 3.92-2.358 5.968-2.423 15.878-.065 9.922-.314 11.554-1.95 12.75-2.408 1.76-2.955 1.727-4.621-.284zm-15.945-4.201c-2.021-1.637-2.272-2.656-2.109-8.574.412-14.972 5.388-28.767 13.875-38.469 4.769-5.452 15.092-11.173 26.472-14.671 4.803-1.476 6.137-1.546 8.763-.459 1.866.773 3.341 2.255 3.711 3.729 1.003 3.994-.706 4.703-7.896 3.274-3.525-.701-7.522-.995-8.881-.654-7.531 1.89-17.173 11.989-23.816 24.945-3.994 7.79-4.046 8.029-4.046 18.741 0 8.531-.336 11.187-1.571 12.422-1.941 1.941-1.735 1.954-4.501-.286zm-184.371-11.365c-.856-1.222-1.557-3.067-1.557-4.099 0-4.276 11.56-11.508 16.438-10.284 3.788.951 3.128 3.247-1.963 6.836-2.489 1.754-5.399 4.67-6.466 6.479-2.266 3.84-4.277 4.172-6.452 1.067zm271.089-2.23c-3.642-3.375-3.324-5.703 1.357-9.931 6.225-5.624 8.031-4.504 3.497 2.169-1.375 2.023-2.5 4.25-2.5 4.947 0 2.192 3.103 1.385 6.653-1.732 3.941-3.461 7.347-3.968 7.347-1.094 0 2.268-8.295 8.094-11.525 8.094-1.2 0-3.373-1.104-4.829-2.452zm-171.645-22.314c-1.374-.241-5.088-2.385-8.254-4.764-11.578-8.703-14.862-9.728-34.051-10.625-9.378-.439-17.469-1.216-17.981-1.728-1.679-1.679 2.519-2.899 14.506-4.214 10.703-1.174 12.536-1.118 21.489.657 11.844 2.348 25.275 2.345 34.288-.007 6.335-1.653 12.141-4.496 28.476-13.94 8.642-4.997 13.524-5.962 13.524-2.672 0 1.226-2.389 3.708-6.498 6.75-11.822 8.753-19.882 13.142-30.252 16.474-5.638 1.811-10.25 3.816-10.25 4.454 0 1.933 6.308 2.495 11.264 1.004 5.127-1.543 27.208-12.906 35.167-18.098 2.787-1.818 10.693-9.017 17.568-15.997 14.233-14.451 15.539-15.416 17.801-13.153 1.381 1.381 1.397 1.89.133 4.268-2.021 3.803-30.545 32.139-38.131 37.879-3.467 2.624-8.67 5.865-11.563 7.203-7.224 3.341-31.304 7.551-37.239 6.511zm-73.251-22.314c-.963-.561-1.75-1.691-1.75-2.512 0-2.458 9.098-11.416 14.48-14.257 4.79-2.529 5.708-2.649 20.02-2.635 8.25.008 21.993.413 30.539.898 16.425.933 18.853.534 21.767-3.572 1.598-2.251 7.009-2.486 7.833-.339.95 2.477-.516 6.361-2.878 7.625-4.822 2.581-10.08 2.835-35.806 1.733-30.381-1.301-30.39-1.3-40.956 7.328-8.334 6.805-10.097 7.568-13.25 5.731zm248.321-14.745c-2.986-2.076-6.319-4.966-7.406-6.422-1.824-2.443-1.865-2.941-.533-6.45 2.084-5.491 5.137-5.657 7.807-.423 1.124 2.203 4.072 5.702 6.552 7.774 4.67 3.903 5.906 7.595 2.927 8.738-2.698 1.035-3.75.673-9.348-3.218zm-140.404-3.841c-1.441-1.441-.551-6.351 1.583-8.741 2.744-3.072 27.433-21.568 32.258-24.167 3.191-1.719 3.607-1.74 5.081-.265 2.387 2.387.479 5.086-6.333 8.957-3.166 1.799-10.801 8.133-16.967 14.077-10.168 9.801-13.681 12.081-15.622 10.139z"/><path fill="#4772FE" d="M286.4 509.235c-2.697-1.801-3.296-4.903-2.281-11.821 1.173-7.998.68-13.763-2.77-32.413-1.576-8.517-2.772-19.68-3.241-30.243l-.744-16.743-4.932-7.044c-10.183-14.545-9.634-12.897-8.975-26.97.322-6.875 1.01-17.225 1.528-23 1.172-13.051.275-31-1.549-31-1.603 0-5.212 15.05-6.085 25.375-.526 6.22-.221 9.169 1.681 16.246 2.234 8.313 2.253 8.698.507 9.974-6.347 4.641-9.645-8.86-7.556-30.927 1.557-16.437 3.265-23.744 6.003-25.667 6.838-4.804 6.99-5.079 9.114-16.5 1.125-6.05 2.84-12.125 3.809-13.5 3.099-4.394 8.262-19.46 7.915-23.096-.27-2.827-.769-3.455-2.947-3.708-3.252-.377-3.555.366-4.942 12.107-1.742 14.739-1.907 15.472-3.63 16.134-3.363 1.29-3.651-1.111-1.455-12.136 2.761-13.861 2.763-18.018.012-20.946-1.924-2.048-2.009-2.587-.847-5.392 2.528-6.103 8.29-7.454 20.918-4.903 6.478 1.308 10.067 3.313 10.067 5.623 0 .9-2.682 5.775-5.959 10.835-8.301 12.814-16.203 37.902-17.475 55.483-.338 4.675-1.759 18.829-3.156 31.452-3.064 27.676-2.841 30.412 3.173 38.889 8.091 11.406 8.533 12.677 9.592 27.572.537 7.55 2.101 18.474 3.522 24.587 1.774 7.637 2.758 15.472 3.219 25.628.628 13.869.804 14.812 3.375 18.183 3.112 4.08 3.263 5.54 1.261 12.19-1.765 5.865-4.122 7.755-7.15 5.733zm289.977-37.871c-.947-3.772.246-22.226 2.157-33.364.896-5.225 2.943-13.378 4.548-18.119 3.79-11.192 3.699-15.579-.582-28.021-4.201-12.21-4.353-16.243-.872-23.113 2.417-4.77 2.576-5.831 1.976-13.217-.359-4.417-.924-11.649-1.256-16.072l-.603-8.041 4.128-4.769c3.753-4.336 4.128-5.266 4.128-10.241 0-7.403 1.723-10.944 8.401-17.267 6.359-6.02 8.055-8.791 9.05-14.777 1.523-9.173-3.679-17.815-12.761-21.196-2.929-1.09-9.329-2.216-14.69-2.583-20.436-1.401-22-1.984-22-8.206 0-2.982-.465-3.673-3.25-4.83-4.515-1.877-18.905-3.483-41.112-4.59-10.374-.517-20.551-1.395-22.615-1.951-3.7-.996-7.859-4.91-15.925-14.984-3.285-4.104-3.558-4.231-7.994-3.731-5.44.613-7.556-.329-9.594-4.272-3.759-7.269-.417-10.395 11.113-10.395 7.731 0 9.825 1.578 11.315 8.524 3.763 17.546 16.889 22.851 56.543 22.851 22.461 0 25.025.565 26.491 5.84.559 2.013 1.019 4.207 1.022 4.875.011 2.481 3.804 3.214 13.626 2.635l9.879-.583 6.905 3.624c8.194 4.3 15.11 9.765 17.656 13.951 2.545 4.185 3.363 12.257 1.954 19.275-1.11 5.528-1.674 6.35-9.349 13.626l-8.167 7.743.218 7.428.218 7.428-3.602 2.125-3.602 2.125.655 6.204c2.011 19.061 1.94 20.702-1.309 30.142-4.956 14.4-3.93 25.381 3.043 32.566 5.593 5.763 5.53 7.412-.693 18.245-5.585 9.723-7.295 16.23-8.084 30.766-.57 10.503-.437 11.882 1.516 15.71 2.776 5.442 2.701 7.679-.324 9.661-3.883 2.544-7.374 2.107-8.159-1.021z"/></svg>